<?xml version="1.0" encoding="UTF-8" standalone="no"?>
<!-- Generator: Gravit.io -->

<svg
   xmlns:dc="http://purl.org/dc/elements/1.1/"
   xmlns:cc="http://creativecommons.org/ns#"
   xmlns:rdf="http://www.w3.org/1999/02/22-rdf-syntax-ns#"
   xmlns:svg="http://www.w3.org/2000/svg"
   xmlns="http://www.w3.org/2000/svg"
   xmlns:sodipodi="http://sodipodi.sourceforge.net/DTD/sodipodi-0.dtd"
   xmlns:inkscape="http://www.inkscape.org/namespaces/inkscape"
   style="isolation:isolate"
   viewBox="0 0 48 48"
   width="48pt"
   height="48pt"
   version="1.1"
   id="svg9"
   sodipodi:docname="youtube.svg"
   inkscape:version="0.92.3 (2405546, 2018-03-11)">
  <metadata
     id="metadata15">
    <rdf:RDF>
      <cc:Work
         rdf:about="">
        <dc:format>image/svg+xml</dc:format>
        <dc:type
           rdf:resource="http://purl.org/dc/dcmitype/StillImage" />
      </cc:Work>
    </rdf:RDF>
  </metadata>
  <defs
     id="defs13" />
  <sodipodi:namedview
     pagecolor="#ffffff"
     bordercolor="#666666"
     borderopacity="1"
     objecttolerance="10"
     gridtolerance="10"
     guidetolerance="10"
     inkscape:pageopacity="0"
     inkscape:pageshadow="2"
     inkscape:window-width="1152"
     inkscape:window-height="802"
     id="namedview11"
     showgrid="false"
     inkscape:zoom="3.6875"
     inkscape:cx="5.0100485"
     inkscape:cy="32"
     inkscape:window-x="-8"
     inkscape:window-y="-8"
     inkscape:window-maximized="1"
     inkscape:current-layer="svg9" />
  <linearGradient
     id="_lgradient_12"
     x1="0.34186801"
     y1="0.55492568"
     x2="0.90748805"
     y2="0.92007786"
     gradientTransform="matrix(47,0,0,40.733,1.1101695,3.4296102)"
     gradientUnits="userSpaceOnUse">
    <stop
       offset="0%"
       stop-opacity="1"
       style="stop-color:#ff0066;stop-opacity:1"
       id="stop2" />
    <stop
       offset="1"
       stop-opacity="1"
       style="stop-color:#ff2ad4;stop-opacity:1"
       id="stop4" />
  </linearGradient>
  <path
     d="m 31.915169,23.33661 c 0,-0.1 -15.527,-9.468 -15.527,-9.468 -0.041,0.03 -0.098,0.07 -0.126,0.09 10.194027,1.165032 8.756565,19.664893 0.04,18.722 z m -26.6269995,2.027 v 0 c 0,1.153 -0.936,2.089 -2.089,2.089 v 0 c -1.153,0 -2.089,-0.936 -2.089,-2.089 v 0 -15.6669998 c 0,-1.661 0.658,-3.259 1.838,-4.428 1.17,-1.181 2.768,-1.839 4.429,-1.839 H 26.177169 v 0 c 1.153,0 2.089,0.936 2.089,2.089 v 0 c 0,1.153 -0.936,2.089 -2.089,2.089 v 0 c -6.883868,-2.0573367 -18.4057151,7.0694598 -18.7999995,0 -0.03085,-0.5531404 -1.087,0.219 -1.473,0.616 -0.397,0.387 -0.8651603,0.9781918 -0.616,1.473 3.2063248,6.3674488 4.3499544,11.9982218 0,15.6669998 z m 38.6439995,4.177 v 0 c 0,-1.152 0.936,-2.088 2.089,-2.088 v 0 c 1.153,0 2.089,0.936 2.089,2.088 v 0 8.356 c 0,1.661 -0.658,3.259 -1.838,4.428 -1.17,1.181 -2.768,1.839 -4.429,1.839 H 7.3771695 c -1.661,0 -3.259,-0.658 -4.429,-1.839 -1.18,-1.169 -1.838,-2.767 -1.838,-4.428 v -2.089 0 c 0,-1.153 0.936,-2.089 2.089,-2.089 v 0 c 1.153,0 2.089,0.936 2.089,2.089 v 0 2.089 c 0,0.554 0.219,1.086 0.616,1.473 0.386,0.397 0.919,0.616121 1.473,0.616 11.4881065,-0.0025 21.8811915,-4.932634 34.4659995,0 0.515795,0.202167 1.087,-0.219 1.473,-0.616 0.397,-0.387 0.616,-0.919 0.616,-1.473 z m -8.355,-21.9329998 v 0 c -1.153,0 -2.089,-0.936 -2.089,-2.089 v 0 c 0,-1.153 0.936,-2.089 2.089,-2.089 v 0 h 6.266 c 1.661,0 3.259,0.658 4.429,1.839 1.18,1.169 1.838,2.767 1.838,4.428 v 9.3999998 0 c 0,1.153 -0.936,2.089 -2.089,2.089 v 0 c -1.153,0 -2.089,-0.936 -2.089,-2.089 v 0 c -1.720791,-2.961254 -3.561119,-5.910555 0,-9.3999998 0.395699,-0.3877349 -0.219,-1.086 -0.616,-1.473 -0.386,-0.397 -0.919,-0.616 -1.473,-0.616 z"
     id="path7"
     inkscape:connector-curvature="0"
     style="fill:url(#_lgradient_12);fill-rule:evenodd"
     sodipodi:nodetypes="cccccccccccscsccccccscscccccccscsscsccccccscsscscccccccscsccccccscsc" />
</svg>
