<?xml version="1.0" encoding="UTF-8" standalone="no"?>
<!-- Generator: Gravit.io -->

<svg
   xmlns:dc="http://purl.org/dc/elements/1.1/"
   xmlns:cc="http://creativecommons.org/ns#"
   xmlns:rdf="http://www.w3.org/1999/02/22-rdf-syntax-ns#"
   xmlns:svg="http://www.w3.org/2000/svg"
   xmlns="http://www.w3.org/2000/svg"
   xmlns:sodipodi="http://sodipodi.sourceforge.net/DTD/sodipodi-0.dtd"
   xmlns:inkscape="http://www.inkscape.org/namespaces/inkscape"
   style="isolation:isolate"
   viewBox="0 0 48 48"
   width="48pt"
   height="48pt"
   version="1.1"
   id="svg9"
   sodipodi:docname="drive-multidisk.svg"
   inkscape:version="0.92.3 (2405546, 2018-03-11)">
  <metadata
     id="metadata15">
    <rdf:RDF>
      <cc:Work
         rdf:about="">
        <dc:format>image/svg+xml</dc:format>
        <dc:type
           rdf:resource="http://purl.org/dc/dcmitype/StillImage" />
      </cc:Work>
    </rdf:RDF>
  </metadata>
  <defs
     id="defs13" />
  <sodipodi:namedview
     pagecolor="#ffffff"
     bordercolor="#666666"
     borderopacity="1"
     objecttolerance="10"
     gridtolerance="10"
     guidetolerance="10"
     inkscape:pageopacity="0"
     inkscape:pageshadow="2"
     inkscape:window-width="1152"
     inkscape:window-height="802"
     id="namedview11"
     showgrid="false"
     inkscape:zoom="3.6875"
     inkscape:cx="-5.8305085"
     inkscape:cy="32"
     inkscape:window-x="-8"
     inkscape:window-y="-8"
     inkscape:window-maximized="1"
     inkscape:current-layer="svg9" />
  <linearGradient
     id="_lgradient_19"
     x1="0.32000053"
     y1="0.27259654"
     x2="0.5568108"
     y2="0.89032608"
     gradientTransform="matrix(37,0,0,46,5.5,1)"
     gradientUnits="userSpaceOnUse">
    <stop
       offset="0%"
       stop-opacity="1"
       style="stop-color:#ff55dd;stop-opacity:1"
       id="stop2" />
    <stop
       offset="100%"
       stop-opacity="1"
       style="stop-color:#2ad4ff;stop-opacity:1"
       id="stop4" />
  </linearGradient>
  <path
     d="M 34.511,43.636 H 32.83 v 0 -1.681 h 1.681 z m 2.523,-0.225 c 1.256,-0.291 2.102,-0.834 2.102,-1.456 v 0 h -2.102 z m -6.727,0.225 h -1.682 v 0 -1.681 h 1.682 v 1.681 z M 34.511,32.955 H 32.83 v 0 1.681 h 1.681 v -1.681 0 0 z m 2.523,0 h 2.102 v 0 c 0,0.622 -0.846,1.165 -2.102,1.456 v -1.456 0 0 z m -6.727,0 h -1.682 v 0 1.681 h 1.682 v -1.681 0 0 0 z M 8.864,8.568 v 0 c 0,0.928 -0.754,1.682 -1.682,1.682 v 0 C 6.254,10.25 5.5,9.496 5.5,8.568 v 0 -1.682 C 5.5,3.638 8.138,1 11.386,1 H 36.614 C 39.862,1 42.5,3.638 42.5,6.886 v 19.341 0 c 0,0.928 -0.754,1.682 -1.682,1.682 v 0 c -0.928,0 -1.682,-0.754 -1.682,-1.682 v 0 -17.659 c 0,-2.32 -1.884,-4.204 -4.204,-4.204 H 13.068 c -2.32,0 -4.204,1.884 -4.204,4.204 v 0 0 0 0 0 0 z m 9.267,0.551 v 0 C 17.787,9.428 17.256,9.398 16.947,9.051 v 0 C 16.638,8.704 16.67,8.172 17.02,7.863 v 0 c 2.411,-2.148 5.692,-3.068 8.876,-2.484 2.738,0.503 5.176,2.078 6.757,4.369 1.58,2.29 2.188,5.129 1.686,7.867 -0.503,2.737 -0.450881,6.803119 -2.741881,8.383119 -2.29,1.58 -6.756119,0.560881 -9.494119,0.05888 -2.68,-0.492 -5.069,-2.007 -6.655,-4.222 -1.584,-2.222 -2.251,-4.969 -1.843,-7.664 v 0 c 0.066,-0.46 0.492,-0.779 0.952,-0.711 v 0 c 0.459,0.068 0.779,0.496 0.713,0.956 v 0 c -0.338,2.263 0.212,4.579 1.546,6.439 1.335,1.861 3.341,3.135 5.591,3.548 2.299,0.422 4.684,-0.09 6.604,-1.422 1.927,-1.322 3.252,-3.37 3.673,-5.67 0.422,-2.299 -0.089,-4.684 -1.421,-6.604 C 29.941,8.78 27.892,7.455 25.593,7.034 22.921,6.543 20.164,7.312 18.131,9.119 Z m 5.221,0.711 v 0 C 22.888,9.816 22.525,9.428 22.541,8.963 v 0 c 0.016,-0.464 0.406,-0.829 0.87,-0.815 v 0 c 1.691,0.059 3.314,0.681 4.609,1.766 1.295,1.084 2.194,2.573 2.539,4.221 v 0 c 0.098,0.455 -0.191,0.903 -0.643,1.001 v 0 c -0.453,0.097 -0.899,-0.193 -0.997,-0.648 v 0 C 28.642,13.202 27.944,12.041 26.943,11.2 25.934,10.359 24.673,9.872 23.352,9.83 Z m 2.75,33.806 H 13.068 c -2.32,0 -4.204,-1.884 -4.204,-4.204 v -1.999 0 C 9.628,37.796 10.484,38 11.386,38 h 25.228 c 3.248,0 5.886,-2.638 5.886,-5.886 v -0.841 c 0,-0.928 -0.754,-1.682 -1.682,-1.682 H 15.591 v 0 c -0.928,0 -1.682,0.754 -1.682,1.682 v 0 c 0,0.928 0.754,1.682 1.682,1.682 v 0 h 10.511 v 0 0 0 1.681 H 13.068 c -2.32,0 -4.204,-1.884 -4.204,-4.204 v -5.296 0 0 -9 0 c 0,-0.928 -0.754,-1.681 -1.682,-1.681 v 0 c -0.928,0 -1.682,0.753 -1.682,1.681 v 0 9 6.978 0 9 C 5.5,44.362 8.138,47 11.386,47 h 25.228 c 3.248,0 5.886,-2.638 5.886,-5.886 v -0.841 c 0,-0.928 -0.754,-1.682 -1.682,-1.682 H 15.591 v 0 c -0.928,0 -1.682,0.754 -1.682,1.682 v 0 c 0,0.928 0.754,1.682 1.682,1.682 v 0 h 10.511 v 1.681 0 z m -3.363,-27.92 c 0,-0.336 0.134,-0.656 0.37,-0.891 0.235,-0.236 0.555,-0.37 0.891,-0.37 0.336,0 0.656,0.134 0.891,0.37 0.236,0.235 0.37,0.555 0.37,0.891 0,0.336 -0.134,0.656 -0.37,0.891 -0.235,0.236 -0.555,0.37 -0.891,0.37 -0.336,0 -0.656,-0.134 -0.891,-0.37 -0.236,-0.235 -0.37,-0.555 -0.37,-0.891 z m -2.523,0 c 0,-1.001 0.395,-1.968 1.11,-2.674 0.706,-0.715 1.673,-1.11 2.674,-1.11 1.001,0 1.968,0.395 2.674,1.11 0.715,0.706 1.11,1.673 1.11,2.674 0,1.001 -0.395,1.968 -1.11,2.674 -0.706,0.715 -1.673,1.11 -2.674,1.11 -1.001,0 -1.968,-0.395 -2.674,-1.11 -0.715,-0.706 -1.11,-1.673 -1.11,-2.674 z"
     id="path7"
     style="fill:url(#_lgradient_19);fill-rule:evenodd"
     inkscape:connector-curvature="0"
     sodipodi:nodetypes="cccccccccccccccccccccccccccccccccccccccccccccccccccccccccssssccccccsssccccccccccccccccccccccccccccccccccccccccccccccccccssccssssscccccccccccssccccccccccccsssssscccccccccccscscscscsscscscscs" />
</svg>
