<?xml version="1.0" encoding="UTF-8" standalone="no"?>
<!-- Generator: Gravit.io -->

<svg
   xmlns:dc="http://purl.org/dc/elements/1.1/"
   xmlns:cc="http://creativecommons.org/ns#"
   xmlns:rdf="http://www.w3.org/1999/02/22-rdf-syntax-ns#"
   xmlns:svg="http://www.w3.org/2000/svg"
   xmlns="http://www.w3.org/2000/svg"
   xmlns:xlink="http://www.w3.org/1999/xlink"
   xmlns:sodipodi="http://sodipodi.sourceforge.net/DTD/sodipodi-0.dtd"
   xmlns:inkscape="http://www.inkscape.org/namespaces/inkscape"
   style="isolation:isolate"
   viewBox="0 0 48 48"
   width="48pt"
   height="48pt"
   version="1.1"
   id="svg11"
   sodipodi:docname="input-mouse.svg"
   inkscape:version="0.92.3 (2405546, 2018-03-11)">
  <metadata
     id="metadata17">
    <rdf:RDF>
      <cc:Work
         rdf:about="">
        <dc:format>image/svg+xml</dc:format>
        <dc:type
           rdf:resource="http://purl.org/dc/dcmitype/StillImage" />
      </cc:Work>
    </rdf:RDF>
  </metadata>
  <defs
     id="defs15">
    <linearGradient
       inkscape:collect="always"
       id="linearGradient844">
      <stop
         style="stop-color:#ffd42a;stop-opacity:1"
         offset="0"
         id="stop840" />
      <stop
         style="stop-color:#ff5555;stop-opacity:1"
         offset="1"
         id="stop842" />
    </linearGradient>
    <linearGradient
       inkscape:collect="always"
       xlink:href="#linearGradient844"
       id="linearGradient846"
       x1="28.067797"
       y1="29.898306"
       x2="29.898306"
       y2="11.593221"
       gradientUnits="userSpaceOnUse" />
  </defs>
  <sodipodi:namedview
     pagecolor="#ffffff"
     bordercolor="#666666"
     borderopacity="1"
     objecttolerance="10"
     gridtolerance="10"
     guidetolerance="10"
     inkscape:pageopacity="0"
     inkscape:pageshadow="2"
     inkscape:window-width="1152"
     inkscape:window-height="802"
     id="namedview13"
     showgrid="false"
     inkscape:zoom="3.6875"
     inkscape:cx="-5.8305085"
     inkscape:cy="32"
     inkscape:window-x="-8"
     inkscape:window-y="-8"
     inkscape:window-maximized="1"
     inkscape:current-layer="svg11" />
  <linearGradient
     id="_lgradient_23"
     x1="0"
     y1="0.5"
     x2="1"
     y2="0.5"
     gradientTransform="matrix(30.08,0,0,43.5,8.96,2.5)"
     gradientUnits="userSpaceOnUse">
    <stop
       offset="0%"
       stop-opacity="1"
       style="stop-color:rgb(84,51,255)"
       id="stop2" />
    <stop
       offset="51.73913043478261%"
       stop-opacity="1"
       style="stop-color:rgb(32,189,255)"
       id="stop4" />
    <stop
       offset="98.26086956521739%"
       stop-opacity="1"
       style="stop-color:rgb(165,254,203)"
       id="stop6" />
  </linearGradient>
  <path
     d="m 36.957,25.169 c 0.027,0.003 0.053,0.005 0.079,0.007 v 0 c 1.019,0.061 1.896,-0.719 1.958,-1.74 v 0 c 0.027,-0.445 0.046,-0.889 0.046,-1.333 V 22.094 21.992 18.077 C 39.058,13.986 37.485,10.052 34.662,7.091 31.886,4.175 28.026,2.519 24,2.5 19.974,2.519 16.114,4.175 13.338,7.091 10.515,10.052 8.942,13.986 8.96,18.077 v 12.346 c -0.018,4.091 1.555,8.025 4.378,10.986 2.776,2.916 6.627,4.572 10.662,4.591 3.785,-0.009 7.432,-1.499 10.135,-4.156 2.702,-2.684 4.368,-6.247 4.664,-10.042 v 0 c 0.082,-1.016 -0.677,-1.908 -1.693,-1.99 v 0 c -1.017,-0.081 -1.909,0.678 -1.99,1.694 v 0 0 c -0.241,2.916 -1.509,5.646 -3.582,7.701 -2.009,1.971 -3.839407,-3.463729 -6.653407,-3.454729 C 21.863593,35.733271 18.095,41.039 16.013,38.855 13.856,36.587 12.653,33.57 12.662,30.433 v -0.01 -12.346 -0.01 C 12.653,14.93 13.856,11.913 16.013,9.645 18.095,7.461 20.983,6.221 24,6.202 c 3.017,0.019 5.905,1.259 7.987,3.443 2.157,2.268 3.36,5.285 3.351,8.422 v 0.01 3.396 H 16.745 c -1.104,0 -2,0.83 -2,1.851 v 0 c 0,1.022 26.786982,-2.154676 10.135593,12.428271 L 36.957,25.176 Z M 24,10.069 v 0 c 1.022,0 1.851,0.859 1.851,1.916 v 4.099 C 25.851,17.142 25.022,18 24,18 v 0 c -1.022,0 -1.851,-0.858 -1.851,-1.916 v -4.099 c 0,-1.057 0.829,-1.916 1.851,-1.916 z"
     id="path9"
     style="fill:url(#linearGradient846);fill-opacity:1;fill-rule:evenodd"
     inkscape:connector-curvature="0"
     sodipodi:nodetypes="cccccscccccccccccccccccccccccccccccccsccsccccssccssc" />
</svg>
