<?xml version="1.0" encoding="UTF-8" standalone="no"?>
<!-- Generator: Gravit.io -->

<svg
   xmlns:dc="http://purl.org/dc/elements/1.1/"
   xmlns:cc="http://creativecommons.org/ns#"
   xmlns:rdf="http://www.w3.org/1999/02/22-rdf-syntax-ns#"
   xmlns:svg="http://www.w3.org/2000/svg"
   xmlns="http://www.w3.org/2000/svg"
   xmlns:xlink="http://www.w3.org/1999/xlink"
   xmlns:sodipodi="http://sodipodi.sourceforge.net/DTD/sodipodi-0.dtd"
   xmlns:inkscape="http://www.inkscape.org/namespaces/inkscape"
   style="isolation:isolate"
   viewBox="0 0 48 48"
   width="48pt"
   height="48pt"
   version="1.1"
   id="svg9"
   sodipodi:docname="network-rj45-female.svg"
   inkscape:version="0.92.3 (2405546, 2018-03-11)">
  <metadata
     id="metadata15">
    <rdf:RDF>
      <cc:Work
         rdf:about="">
        <dc:format>image/svg+xml</dc:format>
        <dc:type
           rdf:resource="http://purl.org/dc/dcmitype/StillImage" />
      </cc:Work>
    </rdf:RDF>
  </metadata>
  <defs
     id="defs13">
    <linearGradient
       inkscape:collect="always"
       id="linearGradient837">
      <stop
         style="stop-color:#55ddff;stop-opacity:1;"
         offset="0"
         id="stop833" />
      <stop
         style="stop-color:#2affd5;stop-opacity:1"
         offset="1"
         id="stop835" />
    </linearGradient>
    <linearGradient
       inkscape:collect="always"
       xlink:href="#linearGradient837"
       id="linearGradient839"
       x1="37.609001"
       y1="30.444"
       x2="19.118645"
       y2="23.59322"
       gradientUnits="userSpaceOnUse" />
  </defs>
  <sodipodi:namedview
     pagecolor="#ffffff"
     bordercolor="#666666"
     borderopacity="1"
     objecttolerance="10"
     gridtolerance="10"
     guidetolerance="10"
     inkscape:pageopacity="0"
     inkscape:pageshadow="2"
     inkscape:window-width="1152"
     inkscape:window-height="802"
     id="namedview11"
     showgrid="false"
     inkscape:zoom="3.6875"
     inkscape:cx="-5.8305085"
     inkscape:cy="32"
     inkscape:window-x="-8"
     inkscape:window-y="-8"
     inkscape:window-maximized="1"
     inkscape:current-layer="svg9" />
  <linearGradient
     id="_lgradient_25"
     x1="0"
     y1="0.5"
     x2="1"
     y2="0.5"
     gradientTransform="matrix(43,0,0,43,2.5,3.5)"
     gradientUnits="userSpaceOnUse">
    <stop
       offset="0%"
       stop-opacity="1"
       style="stop-color:rgb(52,148,230)"
       id="stop2" />
    <stop
       offset="98.69565217391305%"
       stop-opacity="1"
       style="stop-color:rgb(236,110,173)"
       id="stop4" />
  </linearGradient>
  <path
     d="m 33.254,13.024 h -2.177 v 0 3.811 0 L 27.81,13.024 h -2.177 v 3.811 0 l -3.266,-3.811 v 0 H 20.19 v 0 3.811 0 l -3.267,-3.811 h -2.177 v 3.811 0 L 11.48,13.024 v 0 h -1.089 v 0 17.42 L 19.496017,32.477898 15.835,36.976 h 16.33 L 28.300593,32.681288 37.609,30.444 V 13.024 H 36.52 v 3.811 0 z M 5.5,26 v 0 c 0,0.828 -0.672,1.5 -1.5,1.5 v 0 C 3.172,27.5 2.5,26.828 2.5,26 V 26 6.5 c 0,-1.656 1.344,-3 3,-3 h 37 c 1.656,0 3,1.344 3,3 v 9.5 0 c 0,0.828 -0.672,1.5 -1.5,1.5 v 0 c -0.828,0 -1.5,-0.672 -1.5,-1.5 v 0 -8.5 c 0,-0.552 -0.448,-1 -1,-1 h -35 c -0.552,0 -1,0.448 -1,1 z M 9.302,9.758 h 29.396 c 1.201,0 2.177,0.976 2.177,2.177 v 19.597 c 0,1.202 -0.976,2.178 -2.177,2.178 h -3.267 v 4.355 c 0,1.201 -0.975,2.177 -2.177,2.177 H 14.746 c -1.202,0 -2.177,-0.976 -2.177,-2.177 V 33.71 H 9.302 c -1.201,0 -2.177,-0.976 -2.177,-2.178 V 11.935 c 0,-1.201 0.976,-2.177 2.177,-2.177 z M 42.5,25 44,23.5 c 0,-0.828 -0.828,0 0,0 v 0 c 0.828,0 1.5,0.672 1.5,1.5 v 0 18.5 c 0,1.656 -1.344,3 -3,3 h -37 c -1.656,0 -3,-1.344 -3,-3 V 35 35 c 0,-0.828 0.672,-1.5 1.5,-1.5 v 0 c 0.828,0 1.5,0.672 1.5,1.5 v 0 7.5 c 0,0.552 0.448,1 1,1 h 35 c 0.552,0 1,-0.448 1,-1 z"
     id="path7"
     style="fill:url(#linearGradient839);fill-opacity:1;fill-rule:evenodd"
     inkscape:connector-curvature="0"
     sodipodi:nodetypes="ccccccccccccccccccccccccccccccccccccccccssssccccccssssccsssscsssscssscccsccccccccssssccccccss" />
</svg>
