<?xml version="1.0" encoding="UTF-8" standalone="no"?>
<!-- Generator: Gravit.io -->

<svg
   xmlns:dc="http://purl.org/dc/elements/1.1/"
   xmlns:cc="http://creativecommons.org/ns#"
   xmlns:rdf="http://www.w3.org/1999/02/22-rdf-syntax-ns#"
   xmlns:svg="http://www.w3.org/2000/svg"
   xmlns="http://www.w3.org/2000/svg"
   xmlns:xlink="http://www.w3.org/1999/xlink"
   xmlns:sodipodi="http://sodipodi.sourceforge.net/DTD/sodipodi-0.dtd"
   xmlns:inkscape="http://www.inkscape.org/namespaces/inkscape"
   style="isolation:isolate"
   viewBox="0 0 48 48"
   width="48pt"
   height="48pt"
   version="1.1"
   id="svg11"
   sodipodi:docname="smartphone.svg"
   inkscape:version="0.92.3 (2405546, 2018-03-11)">
  <metadata
     id="metadata17">
    <rdf:RDF>
      <cc:Work
         rdf:about="">
        <dc:format>image/svg+xml</dc:format>
        <dc:type
           rdf:resource="http://purl.org/dc/dcmitype/StillImage" />
      </cc:Work>
    </rdf:RDF>
  </metadata>
  <defs
     id="defs15">
    <linearGradient
       inkscape:collect="always"
       id="linearGradient828">
      <stop
         style="stop-color:#ff0066;stop-opacity:1;"
         offset="0"
         id="stop824" />
      <stop
         style="stop-color:#cc00ff;stop-opacity:1"
         offset="1"
         id="stop826" />
    </linearGradient>
    <linearGradient
       inkscape:collect="always"
       xlink:href="#linearGradient828"
       id="linearGradient830"
       x1="26.237289"
       y1="19.118645"
       x2="17.084745"
       y2="22.983051"
       gradientUnits="userSpaceOnUse" />
  </defs>
  <sodipodi:namedview
     pagecolor="#ffffff"
     bordercolor="#666666"
     borderopacity="1"
     objecttolerance="10"
     gridtolerance="10"
     guidetolerance="10"
     inkscape:pageopacity="0"
     inkscape:pageshadow="2"
     inkscape:window-width="1152"
     inkscape:window-height="802"
     id="namedview13"
     showgrid="false"
     inkscape:zoom="3.6875"
     inkscape:cx="-5.8305085"
     inkscape:cy="32"
     inkscape:window-x="-8"
     inkscape:window-y="-8"
     inkscape:window-maximized="1"
     inkscape:current-layer="svg11" />
  <linearGradient
     id="_lgradient_59"
     x1="0.022058823529411742"
     y1="0.05681818181818177"
     x2="1.0132978723404258"
     y2="0.99105415860735"
     gradientTransform="matrix(34,0,0,44,7,2)"
     gradientUnits="userSpaceOnUse">
    <stop
       offset="0%"
       stop-opacity="1"
       style="stop-color:rgb(220,80,141)"
       id="stop2" />
    <stop
       offset="50.416666666666664%"
       stop-opacity="1"
       style="stop-color:rgb(245,139,123)"
       id="stop4" />
    <stop
       offset="97.91666666666666%"
       stop-opacity="1"
       style="stop-color:rgb(249,172,80)"
       id="stop6" />
  </linearGradient>
  <path
     d="M 10,35 15.084746,24.423729 10.40678,14.40678 v 0 C 25.100925,12.779661 29.666667,14 38,14 v 0 L 32.711864,24.355932 38,35 24.423729,27.677966 Z m 1,-24 z m 27,24 v 4 z m 0,3 v 0 H 35 10 v 3 c 0,1.104 0.896,2 2,2 h 24 c 1.104,0 2,-0.896 2,-2 z M 21,7 h 6 c 0.552,0 1,0.448 1,1 v 0 c 0,0.552 -0.448,1 -1,1 H 21 C 20.448,9 20,8.552 20,8 v 0 c 0,-0.552 0.448,-1 1,-1 z m -11,4 h 3 25 V 7 C 38,5.896 37.104,5 36,5 H 12 C 10.896,5 10,5.896 10,7 Z M 7,37 V 35 6 C 7,3.792 8.792,2 11,2 h 26 c 2.208,0 4,1.792 4,4 v 7 1 1 27 c 0,2.208 -2.402169,4 -4.610169,4 H 11 C 8.792,46 7,44.208 7,42 Z m 15.5,3.5 c 0,-0.828 0.672,-1.5 1.5,-1.5 0.828,0 1.5,0.672 1.5,1.5 0,0.828 -0.672,1.5 -1.5,1.5 -0.828,0 -1.5,-0.672 -1.5,-1.5 z"
     id="path9"
     style="fill:url(#linearGradient830);fill-opacity:1;fill-rule:evenodd"
     inkscape:connector-curvature="0"
     sodipodi:nodetypes="ccccccccccccccccccccssssccssccssccscccssssccccsssscccsssscsssss" />
</svg>
