<?xml version="1.0" encoding="UTF-8" standalone="no"?>
<!-- Generator: Gravit.io -->

<svg
   xmlns:dc="http://purl.org/dc/elements/1.1/"
   xmlns:cc="http://creativecommons.org/ns#"
   xmlns:rdf="http://www.w3.org/1999/02/22-rdf-syntax-ns#"
   xmlns:svg="http://www.w3.org/2000/svg"
   xmlns="http://www.w3.org/2000/svg"
   xmlns:xlink="http://www.w3.org/1999/xlink"
   xmlns:sodipodi="http://sodipodi.sourceforge.net/DTD/sodipodi-0.dtd"
   xmlns:inkscape="http://www.inkscape.org/namespaces/inkscape"
   style="isolation:isolate"
   viewBox="0 0 48 48"
   width="48pt"
   height="48pt"
   version="1.1"
   id="svg15"
   sodipodi:docname="folder-pictures.svg"
   inkscape:version="0.92.3 (2405546, 2018-03-11)">
  <metadata
     id="metadata21">
    <rdf:RDF>
      <cc:Work
         rdf:about="">
        <dc:format>image/svg+xml</dc:format>
        <dc:type
           rdf:resource="http://purl.org/dc/dcmitype/StillImage" />
      </cc:Work>
    </rdf:RDF>
  </metadata>
  <defs
     id="defs19">
    <linearGradient
       inkscape:collect="always"
       id="linearGradient843">
      <stop
         style="stop-color:#aaffcc;stop-opacity:1"
         offset="0"
         id="stop839" />
      <stop
         style="stop-color:#aaeeff;stop-opacity:1"
         offset="1"
         id="stop841" />
    </linearGradient>
    <linearGradient
       inkscape:collect="always"
       id="linearGradient835">
      <stop
         style="stop-color:#ffaaee;stop-opacity:1"
         offset="0"
         id="stop831" />
      <stop
         style="stop-color:#5599ff;stop-opacity:1"
         offset="1"
         id="stop833" />
    </linearGradient>
    <linearGradient
       inkscape:collect="always"
       xlink:href="#linearGradient835"
       id="linearGradient837"
       x1="9.5593224"
       y1="8.9491529"
       x2="25.627119"
       y2="15.864407"
       gradientUnits="userSpaceOnUse" />
    <linearGradient
       inkscape:collect="always"
       xlink:href="#linearGradient843"
       id="linearGradient845"
       x1="33.559322"
       y1="38.033897"
       x2="35.18644"
       y2="35.59322"
       gradientUnits="userSpaceOnUse"
       gradientTransform="translate(-0.20338983,-6.3050847)" />
  </defs>
  <sodipodi:namedview
     pagecolor="#ffffff"
     bordercolor="#666666"
     borderopacity="1"
     objecttolerance="10"
     gridtolerance="10"
     guidetolerance="10"
     inkscape:pageopacity="0"
     inkscape:pageshadow="2"
     inkscape:window-width="1152"
     inkscape:window-height="802"
     id="namedview17"
     showgrid="false"
     inkscape:zoom="3.6875"
     inkscape:cx="50.847458"
     inkscape:cy="35.661017"
     inkscape:window-x="-8"
     inkscape:window-y="-8"
     inkscape:window-maximized="1"
     inkscape:current-layer="svg15" />
  <g
     id="g11">
    <path
       d=" M 42 16.792 L 1.222 23.792 L 1.222 16 C 1.222 13.24 3.462 11 6.222 11 L 13.585 11 C 14.688 11 16.315 11.519 17.214 12.159 L 20.039 14.169 C 20.938 14.809 22.556 15.454 23.649 15.609 L 32 16.792 L 42 16.792 Z "
       id="path2"
       style="fill-opacity:1;fill:url(#linearGradient837)"
       fill="rgb(216,136,31)" />
    <linearGradient
       id="_lgradient_5"
       x1="0.08993049"
       y1="0.48480552"
       x2="0.77309757"
       y2="0.92146051"
       gradientTransform="matrix(45.007,0,0,34.066,1.222,12.142)"
       gradientUnits="userSpaceOnUse">
      <stop
         offset="0%"
         stop-opacity="1"
         style="stop-color:rgb(255,164,36)"
         id="stop4" />
      <stop
         offset="0.5579434"
         stop-opacity="1"
         style="stop-color:#d42aff;stop-opacity:1"
         id="stop6" />
    </linearGradient>
    <path
       d="M 5,15.772 C 3.003,15.503 2.392,14.323 3.075,12.142 2.9683333,12.182667 2.8986667,12.238667 2.866,12.31 2.169,12.898 1.123,14.595 1.229,15.792 v 25.416 c 0,4.997288 4.361328,7.685088 5,5 3.7074557,-15.586788 18.434079,-9.594374 35,0 2.388353,1.383246 5,-2.24 5,-5 V 20.772 c 0,-2.76 -2.24,-5 -5,-5 z"
       id="path9"
       style="fill:url(#_lgradient_5)"
       inkscape:connector-curvature="0"
       sodipodi:nodetypes="ccccssssssc" />
  </g>
  <path
     d="m 24.30361,32.888915 c 0.051,0.503 0.476,0.896 0.993,0.896 h 13.5 c 0.552,0 1,-0.448 1,-1 v -4.517 l -4.542,3.11 c -0.683,0.467 -1.713,0.372 -2.299,-0.214 l -2.555,-2.555 c -0.196,-0.196 -0.527,-0.212 -0.741,-0.038 l -5.083,4.154 v 0 c -0.079,0.079 -0.172,0.137 -0.273,0.164 z m -0.007,-1.885 v -6.309 c 0,-0.552 0.448,-1 1,-1 h 2.775 v 0 c 0.552,0 1,-0.448 1,-1 v 0 c 0,-0.552 -0.448,-1 -1,-1 v 0 h -4.275 c -0.828,0 -1.5,0.672 -1.5,1.5 v 11.09 c 0,0.828 0.672,1.5 1.5,1.5 h 16.5 c 0.828,0 1.5,-0.672 1.5,-1.5 v -11.09 c 0,-0.828 -0.672,-1.5 -1.5,-1.5 h -8.045 v 0 c -0.552,0 -1,0.448 -1,1 v 0 c 0,0.552 0.448,1 1,1 v 0 h 6.545 c 0.552,0 1,0.448 1,1 v 1.792 c -0.09,0.032 -0.175,0.081 -0.25,0.148 v 0 l -5.05,3.259 c -0.232,0.15 -0.578,0.113 -0.774,-0.083 l -2.615,-2.615 c -0.586,-0.586 -1.574,-0.627 -2.206,-0.092 l -4.605,3.9 z m 10.75,-4.976 c 0,-0.69 0.56,-1.25 1.25,-1.25 0.69,0 1.25,0.56 1.25,1.25 0,0.69 -0.56,1.25 -1.25,1.25 -0.69,0 -1.25,-0.56 -1.25,-1.25 z"
     id="path13"
     style="fill:url(#linearGradient845);fill-opacity:1;fill-rule:evenodd"
     inkscape:connector-curvature="0" />
</svg>
