<?xml version="1.0" encoding="UTF-8" standalone="no"?>
<!-- Generator: Gravit.io -->

<svg
   xmlns:dc="http://purl.org/dc/elements/1.1/"
   xmlns:cc="http://creativecommons.org/ns#"
   xmlns:rdf="http://www.w3.org/1999/02/22-rdf-syntax-ns#"
   xmlns:svg="http://www.w3.org/2000/svg"
   xmlns="http://www.w3.org/2000/svg"
   xmlns:xlink="http://www.w3.org/1999/xlink"
   xmlns:sodipodi="http://sodipodi.sourceforge.net/DTD/sodipodi-0.dtd"
   xmlns:inkscape="http://www.inkscape.org/namespaces/inkscape"
   style="isolation:isolate"
   viewBox="0 0 48 48"
   width="48pt"
   height="48pt"
   version="1.1"
   id="svg11"
   sodipodi:docname="folder.svg"
   inkscape:version="0.92.3 (2405546, 2018-03-11)">
  <metadata
     id="metadata17">
    <rdf:RDF>
      <cc:Work
         rdf:about="">
        <dc:format>image/svg+xml</dc:format>
        <dc:type
           rdf:resource="http://purl.org/dc/dcmitype/StillImage" />
      </cc:Work>
    </rdf:RDF>
  </metadata>
  <defs
     id="defs15">
    <linearGradient
       inkscape:collect="always"
       id="linearGradient836">
      <stop
         style="stop-color:#2ad4ff;stop-opacity:1"
         offset="0"
         id="stop832" />
      <stop
         style="stop-color:#5599ff;stop-opacity:1"
         offset="1"
         id="stop834" />
    </linearGradient>
    <linearGradient
       inkscape:collect="always"
       xlink:href="#linearGradient836"
       id="linearGradient838"
       x1="7.1186442"
       y1="13.423729"
       x2="14.847458"
       y2="14.644068"
       gradientUnits="userSpaceOnUse" />
  </defs>
  <sodipodi:namedview
     pagecolor="#ffffff"
     bordercolor="#666666"
     borderopacity="1"
     objecttolerance="10"
     gridtolerance="10"
     guidetolerance="10"
     inkscape:pageopacity="0"
     inkscape:pageshadow="2"
     inkscape:window-width="1152"
     inkscape:window-height="802"
     id="namedview13"
     showgrid="false"
     inkscape:zoom="3.6875"
     inkscape:cx="-1.3131776"
     inkscape:cy="3.1186441"
     inkscape:window-x="-8"
     inkscape:window-y="-8"
     inkscape:window-maximized="1"
     inkscape:current-layer="svg11" />
  <path
     d=" M 42 17 L 1.222 24 L 1.222 16.208 C 1.222 13.448 3.462 11.208 6.222 11.208 L 13.585 11.208 C 14.688 11.208 16.315 11.727 17.214 12.367 L 20.039 14.377 C 20.938 15.017 22.556 15.662 23.649 15.817 L 32 17 L 42 17 Z "
     id="path2"
     style="fill-opacity:1;fill:url(#linearGradient838)"
     fill="rgb(55,162,156)" />
  <linearGradient
     id="_lgradient_0"
     x1="0"
     y1="0.5"
     x2="0.9502902"
     y2="0.60746837"
     gradientTransform="matrix(45.007,0,0,34.066,1.222,12.142)"
     gradientUnits="userSpaceOnUse">
    <stop
       offset="0%"
       stop-opacity="1"
       style="stop-color:#ff2a7f;stop-opacity:1"
       id="stop4" />
    <stop
       offset="98.33333333333333%"
       stop-opacity="1"
       style="stop-color:#55ddff;stop-opacity:1"
       id="stop6" />
  </linearGradient>
  <path
     d="M 5,15.772 C 3.003,15.503 2.392,14.323 3.075,12.142 2.9683333,12.182667 2.8986667,12.238667 2.866,12.31 2.169,12.898 1.123,14.595 1.229,15.792 v 27.043119 c 0,2.76 3.8441251,5.879184 5,3.372881 11.113682,-24.097979 26.474824,-0.0849 35,0 2.759863,0.02749 5,-2.24 5,-5 V 20.772 c 0,-2.76 -2.24,-5 -5,-5 z"
     id="path9"
     style="fill:url(#_lgradient_0)"
     inkscape:connector-curvature="0"
     sodipodi:nodetypes="ccccssssssc" />
</svg>
