<?xml version="1.0" encoding="UTF-8" standalone="no"?>
<!-- Generator: Gravit.io -->

<svg
   xmlns:dc="http://purl.org/dc/elements/1.1/"
   xmlns:cc="http://creativecommons.org/ns#"
   xmlns:rdf="http://www.w3.org/1999/02/22-rdf-syntax-ns#"
   xmlns:svg="http://www.w3.org/2000/svg"
   xmlns="http://www.w3.org/2000/svg"
   xmlns:xlink="http://www.w3.org/1999/xlink"
   xmlns:sodipodi="http://sodipodi.sourceforge.net/DTD/sodipodi-0.dtd"
   xmlns:inkscape="http://www.inkscape.org/namespaces/inkscape"
   style="isolation:isolate"
   viewBox="0 0 48 48"
   width="48pt"
   height="48pt"
   version="1.1"
   id="svg15"
   sodipodi:docname="folder-download.svg"
   inkscape:version="0.92.3 (2405546, 2018-03-11)">
  <metadata
     id="metadata21">
    <rdf:RDF>
      <cc:Work
         rdf:about="">
        <dc:format>image/svg+xml</dc:format>
        <dc:type
           rdf:resource="http://purl.org/dc/dcmitype/StillImage" />
      </cc:Work>
    </rdf:RDF>
  </metadata>
  <defs
     id="defs19">
    <linearGradient
       inkscape:collect="always"
       id="linearGradient851">
      <stop
         style="stop-color:#ff2a7f;stop-opacity:1"
         offset="0"
         id="stop847" />
      <stop
         style="stop-color:#d42aff;stop-opacity:1"
         offset="1"
         id="stop849" />
    </linearGradient>
    <linearGradient
       inkscape:collect="always"
       id="linearGradient843">
      <stop
         style="stop-color:#d42aff;stop-opacity:1"
         offset="0"
         id="stop839" />
      <stop
         style="stop-color:#ff2a7f;stop-opacity:1"
         offset="1"
         id="stop841" />
    </linearGradient>
    <linearGradient
       inkscape:collect="always"
       xlink:href="#linearGradient843"
       id="linearGradient845"
       x1="3.075"
       y1="12.142"
       x2="17.084745"
       y2="13.016949"
       gradientUnits="userSpaceOnUse" />
    <linearGradient
       inkscape:collect="always"
       xlink:href="#linearGradient851"
       id="linearGradient853"
       x1="30.676001"
       y1="34.679001"
       x2="34.154999"
       y2="31.087999"
       gradientUnits="userSpaceOnUse"
       gradientTransform="translate(0.61016949,-2.6440678)" />
  </defs>
  <sodipodi:namedview
     pagecolor="#ffffff"
     bordercolor="#666666"
     borderopacity="1"
     objecttolerance="10"
     gridtolerance="10"
     guidetolerance="10"
     inkscape:pageopacity="0"
     inkscape:pageshadow="2"
     inkscape:window-width="1152"
     inkscape:window-height="802"
     id="namedview17"
     showgrid="false"
     inkscape:zoom="3.6875"
     inkscape:cx="10.658116"
     inkscape:cy="32"
     inkscape:window-x="-8"
     inkscape:window-y="-8"
     inkscape:window-maximized="1"
     inkscape:current-layer="svg15" />
  <g
     id="g11">
    <path
       d=" M 42 16.792 L 1.222 23.792 L 1.222 16 C 1.222 13.24 3.462 11 6.222 11 L 13.585 11 C 14.688 11 16.315 11.519 17.214 12.159 L 20.039 14.169 C 20.938 14.809 22.556 15.454 23.649 15.609 L 32 16.792 L 42 16.792 Z "
       fill="rgb(209,88,186)"
       id="path2"
       style="fill-opacity:1;fill:url(#linearGradient845)" />
    <linearGradient
       id="_lgradient_2"
       x1="0.099419564"
       y1="0.39253163"
       x2="0.90961856"
       y2="0.64926159"
       gradientTransform="matrix(45.007,0,0,34.066,1.222,12.142)"
       gradientUnits="userSpaceOnUse">
      <stop
         offset="0%"
         stop-opacity="1"
         style="stop-color:#ff9955;stop-opacity:1"
         id="stop4" />
      <stop
         offset="98.75%"
         stop-opacity="1"
         style="stop-color:#ff5555;stop-opacity:1"
         id="stop6" />
    </linearGradient>
    <path
       d="M 5,15.772 C 3.003,15.503 2.392,14.323 3.075,12.142 2.9683333,12.182667 2.8986667,12.238667 2.866,12.31 2.169,12.898 1.123,14.595 1.229,15.792 L 1.6357797,43.648678 C 1.6760785,46.408384 5.5001677,48.87003 6.229,46.208 c 6.098258,-22.273635 23.333333,0 35,0 2.76,0 5,-2.24 5,-5 V 20.772 c 0,-2.76 -2.24,-5 -5,-5 z"
       id="path9"
       inkscape:connector-curvature="0"
       style="fill:url(#_lgradient_2)"
       sodipodi:nodetypes="ccccssssssc" />
  </g>
  <path
     d="m 34.765169,28.443932 v 0 c 0,-0.48 0.39,-0.87 0.869,-0.87 v 0 c 0.48,0 0.87,0.39 0.87,0.87 v 0 3.591 l 2.817,-1.877 c 0.999,-0.666 2.234,-0.329 2.756,0.751 l 0.298,0.617 c 0.523,1.08 0.143,2.507 -0.847,3.185 l -6.197,4.239 c -0.793,0.541 -2.079,0.541 -2.871,0 l -6.197,-4.239 c -0.991,-0.678 -1.371,-2.105 -0.848,-3.185 l 0.298,-0.617 c 0.523,-1.08 1.757,-1.417 2.756,-0.751 l 2.817,1.877 v -8.809 0 c 0,-0.48 0.39,-0.87 0.87,-0.87 v 0 c 0.48,0 0.87,0.39 0.87,0.87 v 0 11.192 c 0,0.48 -0.325,0.653 -0.724,0.387 l -4.362,-2.909 c -0.399,-0.266 -0.817,-0.134 -0.932,0.296 v 0 c -0.116,0.429 0.112,0.998 0.509,1.269 l 5.661,3.875 c 0.396,0.271 1.039,0.271 1.435,0 l 5.661,-3.875 c 0.396,-0.271 0.624,-0.84 0.509,-1.269 v 0 c -0.115,-0.43 -0.533,-0.562 -0.932,-0.296 l -4.363,2.909 c -0.399,0.266 -0.723,0.093 -0.723,-0.387 z m 0,-3.914 c 0,-0.48 0.39,-0.87 0.869,-0.87 0.48,0 0.87,0.39 0.87,0.87 0,0.48 -0.39,0.87 -0.87,0.87 -0.479,0 -0.869,-0.39 -0.869,-0.87 z"
     id="path13"
     style="fill:url(#linearGradient853);fill-opacity:1;fill-rule:evenodd"
     inkscape:connector-curvature="0" />
</svg>
