<?xml version="1.0" encoding="UTF-8" standalone="no"?>
<!-- Generator: Gravit.io -->

<svg
   xmlns:dc="http://purl.org/dc/elements/1.1/"
   xmlns:cc="http://creativecommons.org/ns#"
   xmlns:rdf="http://www.w3.org/1999/02/22-rdf-syntax-ns#"
   xmlns:svg="http://www.w3.org/2000/svg"
   xmlns="http://www.w3.org/2000/svg"
   xmlns:xlink="http://www.w3.org/1999/xlink"
   xmlns:sodipodi="http://sodipodi.sourceforge.net/DTD/sodipodi-0.dtd"
   xmlns:inkscape="http://www.inkscape.org/namespaces/inkscape"
   style="isolation:isolate"
   viewBox="0 0 48 48"
   width="48pt"
   height="48pt"
   version="1.1"
   id="svg15"
   sodipodi:docname="folder-publicshare.svg"
   inkscape:version="0.92.3 (2405546, 2018-03-11)">
  <metadata
     id="metadata21">
    <rdf:RDF>
      <cc:Work
         rdf:about="">
        <dc:format>image/svg+xml</dc:format>
        <dc:type
           rdf:resource="http://purl.org/dc/dcmitype/StillImage" />
      </cc:Work>
    </rdf:RDF>
  </metadata>
  <defs
     id="defs19">
    <linearGradient
       gradientUnits="userSpaceOnUse"
       gradientTransform="matrix(45.007,0,0,34.066,1.222,12.142)"
       y2="0.9751947012019755"
       x2="0.9583795358695032"
       y1="0.34748486"
       x1="0.22550263"
       id="linearGradient843">
      <stop
         id="stop839"
         style="stop-color:#ff5555;stop-opacity:1"
         stop-opacity="1"
         offset="0%" />
      <stop
         id="stop841"
         style="stop-color:#ddff55;stop-opacity:1"
         stop-opacity="1"
         offset="98.75%" />
    </linearGradient>
    <linearGradient
       gradientUnits="userSpaceOnUse"
       gradientTransform="matrix(45.007,0,0,34.066,1.222,12.142)"
       y2="0.9751947012019755"
       x2="0.9583795358695032"
       y1="0.34748486"
       x1="0.22550263"
       id="linearGradient837">
      <stop
         id="stop833"
         style="stop-color:#ffd42a;stop-opacity:1"
         stop-opacity="1"
         offset="0%" />
      <stop
         id="stop835"
         style="stop-color:#ff2a2a;stop-opacity:1"
         stop-opacity="1"
         offset="98.75%" />
    </linearGradient>
    <linearGradient
       inkscape:collect="always"
       xlink:href="#linearGradient843"
       id="linearGradient831"
       x1="9.3559322"
       y1="12.81356"
       x2="20.745762"
       y2="14.440678"
       gradientUnits="userSpaceOnUse" />
    <meshgradient
       inkscape:collect="always"
       id="meshgradient853"
       gradientUnits="userSpaceOnUse"
       x="24.79661"
       y="20.775423">
      <meshrow
         id="meshrow855">
        <meshpatch
           id="meshpatch857">
          <stop
             path="c 5.66667,0  11.3333,0  17,0"
             style="stop-color:#ffffff;stop-opacity:1"
             id="stop859" />
          <stop
             path="c 0,5.788  0,11.576  0,17.364"
             style="stop-color:#ffcc00;stop-opacity:1"
             id="stop861" />
          <stop
             path="c -5.66667,0  -11.3333,0  -17,0"
             style="stop-color:#ffffff;stop-opacity:1"
             id="stop863" />
          <stop
             path="c 0,-5.788  0,-11.576  0,-17.364"
             style="stop-color:#ffcc00;stop-opacity:1"
             id="stop865" />
        </meshpatch>
      </meshrow>
    </meshgradient>
  </defs>
  <sodipodi:namedview
     pagecolor="#ffffff"
     bordercolor="#666666"
     borderopacity="1"
     objecttolerance="10"
     gridtolerance="10"
     guidetolerance="10"
     inkscape:pageopacity="0"
     inkscape:pageshadow="2"
     inkscape:window-width="1152"
     inkscape:window-height="802"
     id="namedview17"
     showgrid="false"
     inkscape:zoom="3.6875"
     inkscape:cx="-5.8305085"
     inkscape:cy="32"
     inkscape:window-x="-8"
     inkscape:window-y="-8"
     inkscape:window-maximized="1"
     inkscape:current-layer="svg15" />
  <g
     id="g11">
    <path
       d=" M 42 16.792 L 1.222 23.792 L 1.222 16 C 1.222 13.24 3.462 11 6.222 11 L 13.585 11 C 14.688 11 16.315 11.519 17.214 12.159 L 20.039 14.169 C 20.938 14.809 22.556 15.454 23.649 15.609 L 32 16.792 L 42 16.792 Z "
       fill="rgb(209,60,113)"
       id="path2"
       style="fill-opacity:1;fill:url(#linearGradient831)" />
    <linearGradient
       id="_lgradient_7"
       x1="0.22550263"
       y1="0.34748486"
       x2="0.9583795358695032"
       y2="0.9751947012019755"
       gradientTransform="matrix(45.007,0,0,34.066,1.222,12.142)"
       gradientUnits="userSpaceOnUse">
      <stop
         offset="0%"
         stop-opacity="1"
         style="stop-color:#ff6600;stop-opacity:1"
         id="stop4" />
      <stop
         offset="98.75%"
         stop-opacity="1"
         style="stop-color:#ddff55;stop-opacity:1"
         id="stop6" />
    </linearGradient>
    <path
       d="M 5,15.772 C 3.003,15.503 2.392,14.323 3.075,12.142 2.9683333,12.182667 2.8986667,12.238667 2.866,12.31 2.169,12.898 1.123,14.595 1.229,15.792 v 28.060068 c 0,2.76 3.595366,4.731769 5,2.355932 9.77676,-16.536685 23.277063,-0.492369 35,0 2.757569,0.115819 5,-2.24 5,-5 V 20.772 c 0,-2.76 -2.24,-5 -5,-5 z"
       id="path9"
       inkscape:connector-curvature="0"
       style="fill:url(#_lgradient_7)"
       sodipodi:nodetypes="ccccssssssc" />
  </g>
  <path
     d="m 31.21261,28.264424 -0.01,0.015 0.63,0.444 8.103,5.731 c 0.174,0.123 0.316,0.396 0.316,0.609 v 1.144 c 0,0.213 -0.174,0.386 -0.387,0.386 h -13.136 c -0.213,0 -0.387,-0.173 -0.387,-0.386 v -1.117 c 0,-0.213 0.147,-0.478 0.327,-0.592 l 4.229,-2.661 v 0 c 0.36,-0.226 0.469,-0.703 0.243,-1.064 v 0 c -0.226,-0.362 -0.704,-0.47 -1.066,-0.242 v 0 l -4.296,2.699 c -0.542,0.34 -0.982,1.136 -0.982,1.775 v 1.975 c 0,0.639 0.519,1.159 1.159,1.159 h 14.682 c 0.64,0 1.159,-0.52 1.159,-1.159 v -1.948 c 0,-0.639 -0.424,-1.459 -0.947,-1.828 l -6.406,-4.526 c 0.639,-0.191 1.227,-0.537 1.703,-1.013 0.76,-0.76 1.18,-1.79 1.18,-2.86 0,-1.07 -0.42,-2.09 -1.18,-2.85 -0.75,-0.75 -1.78,-1.18 -2.85,-1.18 -1.07,0 -2.1,0.43 -2.85,1.18 -0.76,0.76 -1.18,1.78 -1.18,2.85 v 0 c 0,1.07 0.42,2.1 1.18,2.86 0.231,0.231 0.489,0.432 0.766,0.599 z m 0.866,-1.231 0.013,-0.018 0.119,0.085 c 0.337,0.159 0.708,0.245 1.086,0.245 0.67,0 1.32,-0.27 1.79,-0.74 0.48,-0.48 0.74,-1.12 0.74,-1.8 0,-0.67 -0.26,-1.31 -0.74,-1.79 -0.47,-0.47 -1.12,-0.74 -1.79,-0.74 -0.67,0 -1.32,0.27 -1.79,0.74 -0.48,0.48 -0.74,1.12 -0.74,1.79 v 0 c 0,0.68 0.26,1.32 0.74,1.8 0.17,0.17 0.363,0.313 0.572,0.428 z"
     id="path13"
     inkscape:connector-curvature="0"
     style="fill:url(#meshgradient853);fill-rule:evenodd;fill-opacity:1" />
</svg>
