<?xml version="1.0" encoding="UTF-8" standalone="no"?>
<!-- Generator: Gravit.io -->

<svg
   xmlns:dc="http://purl.org/dc/elements/1.1/"
   xmlns:cc="http://creativecommons.org/ns#"
   xmlns:rdf="http://www.w3.org/1999/02/22-rdf-syntax-ns#"
   xmlns:svg="http://www.w3.org/2000/svg"
   xmlns="http://www.w3.org/2000/svg"
   xmlns:xlink="http://www.w3.org/1999/xlink"
   xmlns:sodipodi="http://sodipodi.sourceforge.net/DTD/sodipodi-0.dtd"
   xmlns:inkscape="http://www.inkscape.org/namespaces/inkscape"
   style="isolation:isolate"
   viewBox="0 0 48 48"
   width="48pt"
   height="48pt"
   version="1.1"
   id="svg17"
   sodipodi:docname="folder-games.svg"
   inkscape:version="0.92.3 (2405546, 2018-03-11)">
  <metadata
     id="metadata23">
    <rdf:RDF>
      <cc:Work
         rdf:about="">
        <dc:format>image/svg+xml</dc:format>
        <dc:type
           rdf:resource="http://purl.org/dc/dcmitype/StillImage" />
      </cc:Work>
    </rdf:RDF>
  </metadata>
  <defs
     id="defs21">
    <linearGradient
       inkscape:collect="always"
       id="linearGradient842">
      <stop
         style="stop-color:#ff2a2a;stop-opacity:1"
         offset="0"
         id="stop838" />
      <stop
         style="stop-color:#ff7f2a;stop-opacity:1"
         offset="1"
         id="stop840" />
    </linearGradient>
    <linearGradient
       inkscape:collect="always"
       id="linearGradient834">
      <stop
         style="stop-color:#ff2a2a;stop-opacity:1"
         offset="0"
         id="stop830" />
      <stop
         style="stop-color:#ff7f2a;stop-opacity:1"
         offset="1"
         id="stop832" />
    </linearGradient>
    <linearGradient
       inkscape:collect="always"
       xlink:href="#linearGradient834"
       id="linearGradient836"
       x1="5"
       y1="15.772"
       x2="16.881355"
       y2="13.220339"
       gradientUnits="userSpaceOnUse" />
    <linearGradient
       inkscape:collect="always"
       xlink:href="#linearGradient842"
       id="linearGradient844"
       x1="26.847458"
       y1="33.152542"
       x2="37.341782"
       y2="27.568695"
       gradientUnits="userSpaceOnUse" />
  </defs>
  <sodipodi:namedview
     pagecolor="#ffffff"
     bordercolor="#666666"
     borderopacity="1"
     objecttolerance="10"
     gridtolerance="10"
     guidetolerance="10"
     inkscape:pageopacity="0"
     inkscape:pageshadow="2"
     inkscape:window-width="1152"
     inkscape:window-height="802"
     id="namedview19"
     showgrid="false"
     inkscape:zoom="3.6875"
     inkscape:cx="-5.8305085"
     inkscape:cy="32"
     inkscape:window-x="-8"
     inkscape:window-y="-8"
     inkscape:window-maximized="1"
     inkscape:current-layer="svg17" />
  <g
     id="g13">
    <path
       d=" M 42 16.792 L 1.222 23.792 L 1.222 16 C 1.222 13.24 3.462 11 6.222 11 L 13.585 11 C 14.688 11 16.315 11.519 17.214 12.159 L 20.039 14.169 C 20.938 14.809 22.556 15.454 23.649 15.609 L 32 16.792 L 42 16.792 Z "
       id="path2"
       fill="rgb(217,145,97)"
       style="fill:url(#linearGradient836);fill-opacity:1" />
    <linearGradient
       id="_lgradient_14"
       x1="-0.25310487"
       y1="0.21076833"
       x2="1.1297308"
       y2="0.94513541"
       gradientTransform="matrix(45.007,0,0,34.066,1.222,12.142)"
       gradientUnits="userSpaceOnUse">
      <stop
         offset="0.23658246"
         stop-opacity="1"
         style="stop-color:#99ff55;stop-opacity:1"
         id="stop4" />
      <stop
         offset="53.04347826086957%"
         stop-opacity="1"
         style="stop-color:#ffe680;stop-opacity:1"
         id="stop6" />
      <stop
         offset="0.87844783"
         stop-opacity="1"
         style="stop-color:#ddff55;stop-opacity:1"
         id="stop8" />
    </linearGradient>
    <path
       d="M 5,15.772 C 3.003,15.503 2.392,14.323 3.075,12.142 2.9683333,12.182667 2.8986667,12.238667 2.866,12.31 2.169,12.898 1.123,14.595 1.229,15.792 v 25.416 c 0,3.567064 7.2761627,6.433624 7.8474576,3.983051 C 14.065972,23.788496 29.562333,46.208 41.229,46.208 c 2.76,0 5,-2.24 5,-5 V 20.772 c 0,-2.76 -2.24,-5 -5,-5 z"
       id="path11"
       inkscape:connector-curvature="0"
       style="fill:url(#_lgradient_14);fill-opacity:1"
       sodipodi:nodetypes="ccccssssssc" />
  </g>
  <path
     d="m 31.40778,30.585695 v 0 c 0.364,0 0.66,0.295 0.66,0.659 v 0 c 0,0.364 -0.296,0.66 -0.66,0.66 v 0 h -2.732 c -0.182,0 -0.374,0.141 -0.429,0.315 l -0.726,2.309 c -0.272,0.868 -1.233,1.573 -2.143,1.573 h -0.445 c -0.91,0 -1.592,-0.737 -1.521,-1.644 l 0.644,-8.275 c 0.07,-0.907 0.492,-2.19 0.94,-2.863 v 0 c 0.449,-0.672 1.552,-1.218 2.462,-1.218 h 6.319 v 0 c 0.364,0 0.659,0.296 0.659,0.66 v 0 c 0,0.364 -0.295,0.659 -0.659,0.659 v 0 h -6.273 c -0.546,0 -1.216,0.341 -1.495,0.76 v 0 c -0.28,0.42 -0.547,1.202 -0.596,1.745 l -0.75,8.2 c -0.033,0.363 0.236,0.657 0.6,0.657 h 0.214 c 0.364,0 0.748,-0.282 0.857,-0.629 l 0.825,-2.624 c 0.164,-0.521 0.74,-0.944 1.286,-0.944 h 2.963 v 0 0 0 0 z m 5.576,-7.165 v 0 c -0.364,0 -0.659,-0.295 -0.659,-0.659 v 0 c 0,-0.364 0.295,-0.66 0.659,-0.66 v 0 h 1.912 c 0.91,0 2.013,0.546 2.462,1.218 v 0 c 0.448,0.673 0.87,1.956 0.941,2.863 l 0.643,8.275 c 0.071,0.907 -0.611,1.644 -1.521,1.644 h -0.702 c -0.91,0 -1.964,-0.668 -2.352,-1.491 l -1.135,-2.408 c -0.078,-0.164 -0.288,-0.298 -0.47,-0.298 h -2.596 v 0 c -0.364,0 -0.659,-0.296 -0.659,-0.66 v 0 c 0,-0.364 0.295,-0.659 0.659,-0.659 v 0 h 3.011 c 0.364,0 0.786,0.267 0.941,0.597 l 1.416,3.003 c 0.155,0.33 0.577,0.597 0.941,0.597 h 0.616 c 0.364,0 0.633,-0.294 0.6,-0.657 l -0.749,-8.2 c -0.05,-0.543 -0.317,-1.325 -0.597,-1.745 v 0 c -0.279,-0.419 -0.949,-0.76 -1.495,-0.76 h -1.866 v 0 0 0 0 z m -9.803,3.159 v 0.862 h 1.083 c 0.176,0 0.319,0.143 0.319,0.32 v 1.083 h 0.863 v -1.084 c 0,-0.176 0.143,-0.319 0.319,-0.319 h 1.084 v -0.862 h -1.084 c -0.176,0 -0.319,-0.143 -0.319,-0.319 v -1.084 h -0.863 v 1.083 c 0,0.177 -0.143,0.32 -0.319,0.32 h -1.083 v 0 0 0 0 z m 10.817,0.333 c 0,-0.362 0.294,-0.656 0.657,-0.656 0.362,0 0.656,0.294 0.656,0.656 0,0.362 -0.294,0.656 -0.656,0.656 -0.363,0 -0.657,-0.294 -0.657,-0.656 v 0 0 z m -2.625,0 c 0,-0.362 0.294,-0.656 0.657,-0.656 0.362,0 0.656,0.294 0.656,0.656 0,0.362 -0.294,0.656 -0.656,0.656 -0.363,0 -0.657,-0.294 -0.657,-0.656 v 0 z m 1.969,-1.969 c 0.362,0 0.656,0.294 0.656,0.657 0,0.362 -0.294,0.656 -0.656,0.656 -0.362,0 -0.656,-0.294 -0.656,-0.656 0,-0.363 0.294,-0.657 0.656,-0.657 z m -9.078,-0.406 h 1.501 c 0.176,0 0.32,0.143 0.32,0.319 v 1.084 h 1.083 c 0.176,0 0.319,0.143 0.319,0.319 v 1.501 0.001 0 c 0,0.176 -0.143,0.319 -0.319,0.319 h -1.084 v 1.083 c 0,0.177 -0.143,0.32 -0.319,0.32 h -1.501 c -0.176,0 -0.319,-0.143 -0.319,-0.32 v -1.083 h -1.084 c -0.176,0 -0.319,-0.143 -0.319,-0.319 v -1.501 c 0,-0.177 0.143,-0.32 0.319,-0.32 h 1.084 v -1.084 c 0,-0.176 0.143,-0.319 0.319,-0.319 v 0 0 0 0 z m 9.078,3.031 c 0.362,0 0.656,0.294 0.656,0.657 0,0.362 -0.294,0.656 -0.656,0.656 -0.362,0 -0.656,-0.294 -0.656,-0.656 0,-0.363 0.294,-0.657 0.656,-0.657 z"
     id="path15"
     inkscape:connector-curvature="0"
     style="fill:url(#linearGradient844);fill-rule:evenodd;fill-opacity:1" />
</svg>
