<?xml version="1.0" encoding="UTF-8" standalone="no"?>
<!-- Generator: Gravit.io -->

<svg
   xmlns:dc="http://purl.org/dc/elements/1.1/"
   xmlns:cc="http://creativecommons.org/ns#"
   xmlns:rdf="http://www.w3.org/1999/02/22-rdf-syntax-ns#"
   xmlns:svg="http://www.w3.org/2000/svg"
   xmlns="http://www.w3.org/2000/svg"
   xmlns:sodipodi="http://sodipodi.sourceforge.net/DTD/sodipodi-0.dtd"
   xmlns:inkscape="http://www.inkscape.org/namespaces/inkscape"
   style="isolation:isolate"
   viewBox="0 0 48 48"
   width="48pt"
   height="48pt"
   version="1.1"
   id="svg11"
   sodipodi:docname="4kyoutubetomp3.svg"
   inkscape:version="0.92.3 (2405546, 2018-03-11)">
  <metadata
     id="metadata17">
    <rdf:RDF>
      <cc:Work
         rdf:about="">
        <dc:format>image/svg+xml</dc:format>
        <dc:type
           rdf:resource="http://purl.org/dc/dcmitype/StillImage" />
      </cc:Work>
    </rdf:RDF>
  </metadata>
  <defs
     id="defs15" />
  <sodipodi:namedview
     pagecolor="#ffffff"
     bordercolor="#666666"
     borderopacity="1"
     objecttolerance="10"
     gridtolerance="10"
     guidetolerance="10"
     inkscape:pageopacity="0"
     inkscape:pageshadow="2"
     inkscape:window-width="1152"
     inkscape:window-height="802"
     id="namedview13"
     showgrid="false"
     inkscape:zoom="3.6875"
     inkscape:cx="-5.8305085"
     inkscape:cy="32"
     inkscape:window-x="-8"
     inkscape:window-y="-8"
     inkscape:window-maximized="1"
     inkscape:current-layer="svg11" />
  <linearGradient
     id="_lgradient_14"
     x1="-0.29859358"
     y1="0.60345984"
     x2="1"
     y2="0.5"
     gradientTransform="matrix(47,0,0,33.42,0.70338982,5.0527118)"
     gradientUnits="userSpaceOnUse">
    <stop
       offset="0%"
       stop-opacity="1"
       style="stop-color:#ff0066;stop-opacity:1"
       id="stop2" />
    <stop
       offset="0.55336601"
       stop-opacity="1"
       style="stop-color:#de87cd;stop-opacity:1"
       id="stop4" />
    <stop
       offset="0.92995977"
       stop-opacity="1"
       style="stop-color:#782144;stop-opacity:1"
       id="stop6" />
  </linearGradient>
  <path
     d="m 36.401389,21.846712 v 0 c 0.037,0.009 0.012,0.001 0.003,-0.001 z m 0,-0.001 v 0.001 c 0.012,0.01 -0.003,0.01 0.993,0.062 0.543,0.073 1.086,0.178 1.629,0.324 0.491,0.125 0.971,0.292 1.431,0.512 0.344,0.156 0.679,0.344 0.981,0.564 0.314,0.229 0.596,0.491 0.846,0.783 0.241,0.292 0.449,0.606 0.606,0.94 0.199,0.386 0.334,0.804 0.428,1.222 0.126,0.595 0.199,1.201 0.209,1.807 0.011,0.626 -0.031,1.263 -0.125,1.88 -0.063,0.428 -0.167,0.856 -0.324,1.263 -0.115,0.314 -0.261,0.616 -0.449,0.909 -0.157,0.24 -0.345,0.47 -0.543,0.668 -0.219,0.22 -0.47,0.408 -0.731,0.564 -0.324,0.199 -0.679,0.355 -1.045,0.481 -0.407,0.146 -0.825,0.25 -1.253,0.313 -0.606,0.094 -1.211,0.146 -1.817,0.157 h -7.29 -9.399 -2.089 -7.289999 c -0.637,-0.011 -1.2640001,-0.063 -1.8900001,-0.167 -0.439,-0.074 -0.867,-0.188 -1.285,-0.335 -0.345,-0.125 -0.668,-0.282 -0.982,-0.47 -0.25,-0.156 -0.48,-0.334 -0.689,-0.543 -0.219,-0.209 -0.407,-0.449 -0.564,-0.71 -0.198,-0.313 -0.355,-0.647 -0.47,-0.992 -0.146,-0.397 -0.24,-0.804 -0.292,-1.222 -0.084,-0.595 -0.126,-1.191 -0.115,-1.796 0.01,-0.606 0.083,-1.212 0.209,-1.797 0.094,-0.428 0.229,-0.835 0.417,-1.232 0.168,-0.334 0.376,-0.648 0.617,-0.93 0.24,-0.292 0.522,-0.564 0.835,-0.783 0.314,-0.23 0.648,-0.428 1.003,-0.585 0.47,-0.209 0.961,-0.386 1.462,-0.511 0.533,-0.147 2.0570001,-0.627 2.6110001,-0.69 v 0 c -0.027,0 -0.052,-0.005 -0.077,-0.013 l 0.077,0.013 v 0 l 0.355,-2.057 c 0.479999,-2.841 1.921999,-5.431 4.083999,-7.321 2.141,-1.88 4.898,-2.9140002 7.738,-2.9250002 h 0.011 v 0 0 0 h -0.011 c 2.904,0.011 5.703,1.0870002 7.854,3.0190002 2.183,1.963 3.614,4.626 4.032,7.53 z m 3.654,-3.665 c 0.014,0.003 0.029,0.006 0.044,0.01 0.71,0.188 1.409,0.439 2.088,0.742 0.596,0.282 1.17,0.605 1.703,0.992 0.585,0.428 1.117,0.919 1.587,1.472 0.46,0.554 0.857,1.149 1.17,1.797 0.334,0.7 0.595,1.431 0.752,2.183 0.188,0.856 0.292,1.733 0.303,2.621 0.01,0.856 -0.042,1.713 -0.167,2.559 -0.105,0.71 -0.282,1.42 -0.543,2.099 -0.22,0.595 -0.502,1.159 -0.846,1.702 -0.324,0.512 -0.711,0.992 -1.149,1.421 -0.449,0.438 -0.951,0.825 -1.494,1.148 -0.585,0.345 -1.201,0.638 -1.838,0.857 -0.637,0.219 -1.305,0.376 -1.974,0.48 -0.793,0.126 -1.598,0.199 -2.402,0.209 h -0.031 -7.311 -2.089 -9.399 -7.310999 -0.031 c -0.836,-0.01 -1.6820001,-0.083 -2.5070001,-0.219 -0.699,-0.115 -1.378,-0.293 -2.047,-0.533 -0.595,-0.219 -1.18,-0.501 -1.723,-0.835 -0.522,-0.314 -1.003,-0.69 -1.431,-1.107 -0.459,-0.46 -0.867,-0.961 -1.211,-1.504 -0.3550001,-0.575 -0.6370001,-1.191 -0.8570001,-1.828 -0.229,-0.658 -0.39599998,-1.326 -0.48999998,-2.016 -0.105,-0.804 -0.157,-1.618 -0.147,-2.433 0.011,-0.877 0.115,-1.755 0.30299998,-2.621 0.157,-0.752 0.418,-1.483 0.752,-2.173 0.3130001,-0.647 0.7100001,-1.253 1.1700001,-1.796 0.459,-0.554 0.992,-1.044 1.577,-1.473 0.543,-0.386 1.117,-0.731 1.734,-1.002 0.678,-0.314 1.389,-0.564 2.12,-0.752 0.005,-0.002 0.01,-0.003 0.016,-0.004 0.734,-3.545 2.6120001,-6.773 5.3519991,-9.1660002 2.903,-2.548 6.632,-3.948 10.485,-3.958 h 0.011 v 0 0 c 3.927,0.01 7.707,1.462 10.632,4.083 2.66,2.3840002 4.485,5.5600002 5.199,9.0450002 z m -23.073,11.709 c -1.07,0 -1.94,-0.87 -1.94,-1.94 0,-1.069 0.87,-1.939 1.94,-1.939 1.069,0 1.939,0.87 1.939,1.939 0,1.07 -0.87,1.94 -1.939,1.94 z m 3.253,-11.926 c 0,-0.31 0.221,-0.58 0.526,-0.644 l 7.689,-1.615 c 0.045,-0.009 0.09,-0.014 0.134,-0.014 0.15,0 0.296,0.052 0.415,0.148 0.154,0.125 0.242,0.311 0.242,0.51 v 0.956 l -9.006,1.915 z m 9.594,-3.144 c -0.462,-0.377 -1.062,-0.523 -1.647,-0.402 l -7.689,1.615 c -0.911,0.189 -1.572,1.001 -1.572,1.931 v 7.375 c -0.542,-0.403 -1.213,-0.642 -1.939,-0.642 -1.795,0 -4.881118,1.86578 -4.881118,3.65978 0,1.795 3.086118,2.84722 4.881118,2.84722 1.789,0 3.245,-1.451 3.253,-3.239 v -0.004 -7.397 l 9.006,-1.915 v 4.587 c -0.542,-0.404 -1.213,-0.643 -1.939,-0.643 -1.794,0 -5.287898,2.680339 -5.287898,4.474339 0,1.794 3.493898,2.033661 5.287898,2.033661 0.352,0 0.698,-0.056 1.029,-0.167 0.345,-0.114 0.531,-0.487 0.416,-0.831 -0.115,-0.345 -0.487,-0.531 -0.831,-0.416 -0.198,0.066 -0.404,0.099 -0.614,0.099 -1.07,0 -1.939,-0.87 -1.939,-1.939 0,-1.069 0.869,-1.939 1.939,-1.939 1.069,0 1.939,0.87 1.939,1.939 v 0.004 c 0,0.363 0.294,0.658 0.657,0.658 0.363,0 0.657,-0.295 0.657,-0.658 v -9.502 0 0 c 0,-0.596 -0.264,-1.153 -0.726,-1.529 z"
     id="path9"
     style="fill:url(#_lgradient_14);fill-rule:evenodd"
     inkscape:connector-curvature="0"
     sodipodi:nodetypes="cccccccccccccccccccccccccccccccccccccccccccccccccccccccccccccccccccccsccccccccccccccccccccccccccccccssssssccscsccscccscssscccccssscccsssssssccccc" />
</svg>
