<?xml version="1.0" encoding="UTF-8" standalone="no"?>
<!-- Generator: Gravit.io -->

<svg
   xmlns:dc="http://purl.org/dc/elements/1.1/"
   xmlns:cc="http://creativecommons.org/ns#"
   xmlns:rdf="http://www.w3.org/1999/02/22-rdf-syntax-ns#"
   xmlns:svg="http://www.w3.org/2000/svg"
   xmlns="http://www.w3.org/2000/svg"
   xmlns:sodipodi="http://sodipodi.sourceforge.net/DTD/sodipodi-0.dtd"
   xmlns:inkscape="http://www.inkscape.org/namespaces/inkscape"
   style="isolation:isolate"
   viewBox="0 0 48 48"
   width="48px"
   height="48px"
   version="1.1"
   id="svg46"
   sodipodi:docname="accessories-calculator.svg"
   inkscape:version="0.92.3 (2405546, 2018-03-11)">
  <metadata
     id="metadata52">
    <rdf:RDF>
      <cc:Work
         rdf:about="">
        <dc:format>image/svg+xml</dc:format>
        <dc:type
           rdf:resource="http://purl.org/dc/dcmitype/StillImage" />
      </cc:Work>
    </rdf:RDF>
  </metadata>
  <defs
     id="defs50" />
  <sodipodi:namedview
     pagecolor="#ffffff"
     bordercolor="#666666"
     borderopacity="1"
     objecttolerance="10"
     gridtolerance="10"
     guidetolerance="10"
     inkscape:pageopacity="0"
     inkscape:pageshadow="2"
     inkscape:window-width="1152"
     inkscape:window-height="802"
     id="namedview48"
     showgrid="false"
     inkscape:zoom="4.9166667"
     inkscape:cx="-4.3728814"
     inkscape:cy="24"
     inkscape:window-x="-8"
     inkscape:window-y="-8"
     inkscape:window-maximized="1"
     inkscape:current-layer="svg46" />
  <linearGradient
     id="_lgradient_0"
     x1="-0.014458464773922156"
     y1="0.009839246119734024"
     x2="1.0164565923220248"
     y2="1.0722930524759795"
     gradientTransform="matrix(44,0,0,44,2,2)"
     gradientUnits="userSpaceOnUse">
    <stop
       offset="0%"
       stop-opacity="1"
       style="stop-color:rgb(249,212,35)"
       id="stop2" />
    <stop
       offset="51.56237565086822%"
       stop-opacity="1"
       style="stop-color:rgb(255,78,80)"
       id="stop4" />
    <stop
       offset="99.1304347826087%"
       stop-opacity="1"
       style="stop-color:rgb(138,35,135)"
       id="stop6" />
  </linearGradient>
  <path
     d="m 6,18.36 v 0 c 0,1.104 -0.896,2 -2,2 v 0 c -1.104,0 -2,-0.896 -2,-2 v 0 V 7 C 2,4.24 4.24,2 7,2 h 11.36 v 0 c 1.104,0 2,0.896 2,2 v 0 c 0,1.104 -0.896,2 -2,2 V 6 L 13.271186,3.3559322 C 11.801705,2.5924129 3.932785,10.861178 4.3728814,12.457627 Z M 29.64,6 v 0 c -1.104,0 -2,-0.896 -2,-2 v 0 c 0,-1.104 0.896,-2 2,-2 V 2 H 41 c 2.76,0 5,2.24 5,5 v 11.36 0 c 0,1.104 -0.896,2 -2,2 v 0 c -1.104,0 -2,-0.896 -2,-2 v 0 l 2.237288,-6.309153 C 44.790754,10.490075 37.552684,3.9593335 35.949153,4.3728814 Z M 42,29.64 v 0 c 0,-1.104 0.896,-2 2,-2 v 0 c 1.104,0 2,0.896 2,2 v 0 V 41 c 0,2.76 -2.24,5 -5,5 H 30 v 0 c -1.104,0 -2,-0.896 -2,-2 v 0 c 0,-1.104 0.896,-2 2,-2 v 0 l 5.135593,1.627119 c 1.57866,0.500169 9.930757,-8.68512 9.101695,-10.118644 z M 18.36,42 v 0 c 1.104,0 2,0.896 2,2 v 0 c 0,1.104 -0.896,2 -2,2 v 0 H 7 C 4.24,46 2,43.76 2,41 v -11.36 0 c 0,-1.104 0.896,-2 2,-2 v 0 c 1.104,0 2,0.896 2,2 v 0 l -2.0338983,3.665085 c -0.8035424,1.447983 6.5086203,11.236913 8.0847453,10.728813 z"
     id="path9"
     inkscape:connector-curvature="0"
     style="fill:url(#_lgradient_0);fill-rule:evenodd"
     sodipodi:nodetypes="ccccccssccccccsscccccccssccccccsscccccccssccccccsscccccccssccccccssc" />
  <linearGradient
     id="_lgradient_1"
     x1="0"
     y1="0.5"
     x2="0.90748805"
     y2="0.92007786"
     gradientTransform="matrix(12.122,0,0,12.134,9.074,9.562)"
     gradientUnits="userSpaceOnUse">
    <stop
       offset="0%"
       stop-opacity="1"
       style="stop-color:#0066ff;stop-opacity:1"
       id="stop11" />
    <stop
       offset="0.51553571"
       stop-opacity="1"
       style="stop-color:#2ad4ff;stop-opacity:1"
       id="stop13" />
  </linearGradient>
  <path
     d=" M 13.798 20.696 L 13.798 16.996 L 10.074 16.996 C 9.522 16.996 9.074 16.548 9.074 15.996 L 9.074 15.323 C 9.074 14.771 9.522 14.323 10.074 14.323 L 13.798 14.323 L 13.798 10.562 C 13.798 10.01 14.246 9.562 14.798 9.562 L 15.472 9.562 C 16.024 9.562 16.472 10.01 16.472 10.562 L 16.472 14.323 L 20.196 14.323 C 20.748 14.323 21.196 14.771 21.196 15.323 L 21.196 15.996 C 21.196 16.548 20.748 16.996 20.196 16.996 L 16.472 16.996 L 16.472 20.696 C 16.472 21.248 16.024 21.696 15.472 21.696 L 14.798 21.696 C 14.246 21.696 13.798 21.248 13.798 20.696 Z "
     id="path16"
     fill="url(#_lgradient_1)"
     style="fill:url(#_lgradient_1)" />
  <linearGradient
     id="_lgradient_2"
     x1="0.63366801"
     y1="0.69992447"
     x2="0.57305217"
     y2="1.5864928"
     gradientTransform="matrix(11.555,0,0,3.052,9.108,33.312)"
     gradientUnits="userSpaceOnUse">
    <stop
       offset="0%"
       stop-opacity="1"
       style="stop-color:#aad400;stop-opacity:1"
       id="stop18" />
    <stop
       offset="0.7696417"
       stop-opacity="1"
       style="stop-color:#ddff55;stop-opacity:1"
       id="stop20" />
  </linearGradient>
  <path
     d="m 19.663,36.364 h -9.555 c -0.552,0 -1,-0.448 -1,-1 v -1.052 c 0,-0.552 0.582035,-1.360568 1,-1 2.906412,2.507289 6.106299,2.37331 9.555,0 0.454728,-0.312932 1,0.448 1,1 v 1.052 c 0,0.552 -0.448,1 -1,1 z"
     id="path23"
     style="fill:url(#_lgradient_2)"
     inkscape:connector-curvature="0"
     sodipodi:nodetypes="sssssssss" />
  <linearGradient
     id="_lgradient_3"
     x1="0"
     y1="0.5"
     x2="1"
     y2="0.5"
     gradientTransform="matrix(11.555,0,0,3.052,27.108,33.312)"
     gradientUnits="userSpaceOnUse">
    <stop
       offset="0%"
       stop-opacity="1"
       style="stop-color:rgb(241,39,17)"
       id="stop25" />
    <stop
       offset="99.1304347826087%"
       stop-opacity="1"
       style="stop-color:rgb(245,175,25)"
       id="stop27" />
  </linearGradient>
  <path
     d="m 37.663,36.364 c -5.48913,-2.64668 -7.154652,-0.983593 -9.555,0 -0.51078,0.209303 -1,-0.448 -1,-1 v -1.052 c 0,-0.552 0.470091,-1.154597 1,-1 4.496946,1.311946 7.204503,0.834503 9.555,0 0.520188,-0.184684 1,0.448 1,1 v 1.052 c 0,0.552 -0.502781,1.239743 -1,1 z"
     id="path30"
     inkscape:connector-curvature="0"
     style="fill:url(#_lgradient_3)"
     sodipodi:nodetypes="sssssssss" />
  <linearGradient
     id="_lgradient_4"
     x1="0"
     y1="0.5"
     x2="1"
     y2="0.5"
     gradientTransform="matrix(11.555,0,0,3.052,27.108,29.312)"
     gradientUnits="userSpaceOnUse">
    <stop
       offset="0%"
       stop-opacity="1"
       style="stop-color:rgb(241,39,17)"
       id="stop32" />
    <stop
       offset="99.1304347826087%"
       stop-opacity="1"
       style="stop-color:rgb(245,175,25)"
       id="stop34" />
  </linearGradient>
  <path
     d="m 37.663,32.364 h -9.555 c -0.552,0 -1,-0.448 -1,-1 v -1.052 c 0,-0.552 0.588398,-1.367815 1,-1 3.185,2.846171 6.37,3.117377 9.555,0 0.394488,-0.386113 1,0.448 1,1 v 1.052 c 0,0.552 -0.448,1 -1,1 z"
     id="path37"
     inkscape:connector-curvature="0"
     style="fill:url(#_lgradient_4)"
     sodipodi:nodetypes="sssssssss" />
  <linearGradient
     id="_lgradient_5"
     x1="-0.000038208333333289435"
     y1="0.5000000833333331"
     x2="0.9999618333333335"
     y2="0.5000000833333331"
     gradientTransform="matrix(9.62,0,0,10.08,28.52,10.26)"
     gradientUnits="userSpaceOnUse">
    <stop
       offset="0%"
       stop-opacity="1"
       style="stop-color:rgb(211,0,220)"
       id="stop39" />
    <stop
       offset="100%"
       stop-opacity="1"
       style="stop-color:rgb(135,0,255)"
       id="stop41" />
  </linearGradient>
  <path
     d="m 37.78,18.38 v 0 c 0.24,0.24 0.36,0.513333 0.36,0.82 v 0 0 c 0,0.293333 -0.113333,0.556667 -0.34,0.79 v 0 0 c -0.226667,0.233333 -0.493333,0.35 -0.8,0.35 v 0 0 c -0.333333,0 -0.62,-0.14 -0.86,-0.42 v 0 l -1.3,-4.72 -4.34,4.72 v 0 c -0.253333,0.266667 -0.54,0.4 -0.86,0.4 v 0 0 c -0.293333,0 -0.553333,-0.113333 -0.78,-0.34 v 0 0 C 28.633333,19.753333 28.52,19.493333 28.52,19.2 v 0 0 c 0,-0.306667 0.12,-0.58 0.36,-0.82 v 0 l 2.92,-3.18 -2.76,-3 v 0 C 28.8,11.96 28.68,11.686667 28.68,11.38 v 0 0 c 0,-0.306667 0.113333,-0.57 0.34,-0.79 v 0 0 c 0.226667,-0.22 0.486667,-0.33 0.78,-0.33 v 0 0 c 0.32,0 0.606667,0.133333 0.86,0.4 v 0 l 1.14,4.54 4.18,-4.54 v 0 c 0.253333,-0.266667 0.54,-0.4 0.86,-0.4 v 0 0 c 0.306667,0 0.57,0.11 0.79,0.33 v 0 0 c 0.22,0.22 0.33,0.483333 0.33,0.79 v 0 0 c 0,0.306667 -0.12,0.58 -0.36,0.82 v 0 l -2.76,3 z"
     id="path44"
     inkscape:connector-curvature="0"
     style="fill:url(#_lgradient_5)"
     sodipodi:nodetypes="ccccccccccccccccccccccccccccccccccccccccccccccccccccccccc" />
</svg>
