<?xml version="1.0" encoding="UTF-8" standalone="no"?>
<!-- Generator: Gravit.io -->

<svg
   xmlns:dc="http://purl.org/dc/elements/1.1/"
   xmlns:cc="http://creativecommons.org/ns#"
   xmlns:rdf="http://www.w3.org/1999/02/22-rdf-syntax-ns#"
   xmlns:svg="http://www.w3.org/2000/svg"
   xmlns="http://www.w3.org/2000/svg"
   xmlns:sodipodi="http://sodipodi.sourceforge.net/DTD/sodipodi-0.dtd"
   xmlns:inkscape="http://www.inkscape.org/namespaces/inkscape"
   style="isolation:isolate"
   viewBox="0 0 48 48"
   width="48pt"
   height="48pt"
   version="1.1"
   id="svg9"
   sodipodi:docname="accessories-text-editor.svg"
   inkscape:version="0.92.3 (2405546, 2018-03-11)">
  <metadata
     id="metadata15">
    <rdf:RDF>
      <cc:Work
         rdf:about="">
        <dc:format>image/svg+xml</dc:format>
        <dc:type
           rdf:resource="http://purl.org/dc/dcmitype/StillImage" />
      </cc:Work>
    </rdf:RDF>
  </metadata>
  <defs
     id="defs13" />
  <sodipodi:namedview
     pagecolor="#ffffff"
     bordercolor="#666666"
     borderopacity="1"
     objecttolerance="10"
     gridtolerance="10"
     guidetolerance="10"
     inkscape:pageopacity="0"
     inkscape:pageshadow="2"
     inkscape:window-width="1152"
     inkscape:window-height="802"
     id="namedview11"
     showgrid="false"
     inkscape:zoom="3.6875"
     inkscape:cx="-5.8305085"
     inkscape:cy="32"
     inkscape:window-x="-8"
     inkscape:window-y="-8"
     inkscape:window-maximized="1"
     inkscape:current-layer="svg9" />
  <linearGradient
     id="_lgradient_6"
     x1="0"
     y1="0.5"
     x2="1"
     y2="0.5"
     gradientTransform="matrix(44,0,0,45,2,1)"
     gradientUnits="userSpaceOnUse">
    <stop
       offset="0%"
       stop-opacity="1"
       style="stop-color:rgb(242,55,239)"
       id="stop2" />
    <stop
       offset="98.69565217391305%"
       stop-opacity="1"
       style="stop-color:rgb(252,82,82)"
       id="stop4" />
  </linearGradient>
  <path
     d="M 39.709,7.121 18,28.83 v 2.4 L 20.92,30.25 42.464,8.706 C 44.416,6.754 46,7.41 46,10.17 V 41 c 0,2.76 -2.24,5 -5,5 H 7 C 4.24,46 2,43.76 2,41 V 7 C 2,4.24 4.24,2 7,2 h 21 v 0 c 1.104,0 2,0.896 2,2 v 0 c 0,1.104 -0.896,2 -2,2 V 6 L 16.728814,3.7627119 C 15.104504,3.4402925 6.0419106,11.208937 6,12.864407 L 5.3898305,36.966102 C 5.3479199,38.621571 20.17401,44.673514 21.813559,44.440678 L 39,42 c 1.63955,-0.232836 3,-1.344 3,-3 V 15.83 c 0,-0.552 -0.317,-0.683 -0.707,-0.293 L 24.494,32.336 c -0.78,0.78 -2.264,1.697 -3.312,2.045 l -5.284,1.758 c -1.048,0.348 -5.549104,2.508658 -5.152237,1.478458 L 14,29.17 c 0.396867,-1.0302 0.634,-2.634 1.414,-3.414 L 38.049,3.121 C 39.219,1.951 40.542,1.896 41,3 v 0 c 0.458,1.104 -0.121,2.951 -1.291,4.121 z"
     id="path7"
     inkscape:connector-curvature="0"
     style="fill:url(#_lgradient_6)"
     sodipodi:nodetypes="scccssssssssccccccsssssssssccssssccs" />
</svg>
