<?xml version="1.0" encoding="UTF-8" standalone="no"?>
<!-- Generator: Gravit.io -->

<svg
   xmlns:dc="http://purl.org/dc/elements/1.1/"
   xmlns:cc="http://creativecommons.org/ns#"
   xmlns:rdf="http://www.w3.org/1999/02/22-rdf-syntax-ns#"
   xmlns:svg="http://www.w3.org/2000/svg"
   xmlns="http://www.w3.org/2000/svg"
   xmlns:xlink="http://www.w3.org/1999/xlink"
   xmlns:sodipodi="http://sodipodi.sourceforge.net/DTD/sodipodi-0.dtd"
   xmlns:inkscape="http://www.inkscape.org/namespaces/inkscape"
   style="isolation:isolate"
   viewBox="0 0 360 360"
   width="360"
   height="360"
   version="1.1"
   id="svg25"
   sodipodi:docname="accessories-character-map.svg"
   inkscape:version="0.92.3 (2405546, 2018-03-11)">
  <metadata
     id="metadata29">
    <rdf:RDF>
      <cc:Work
         rdf:about="">
        <dc:format>image/svg+xml</dc:format>
        <dc:type
           rdf:resource="http://purl.org/dc/dcmitype/StillImage" />
      </cc:Work>
    </rdf:RDF>
  </metadata>
  <sodipodi:namedview
     pagecolor="#ffffff"
     bordercolor="#666666"
     borderopacity="1"
     objecttolerance="10"
     gridtolerance="10"
     guidetolerance="10"
     inkscape:pageopacity="0"
     inkscape:pageshadow="2"
     inkscape:window-width="1152"
     inkscape:window-height="802"
     id="namedview27"
     showgrid="false"
     inkscape:zoom="0.65555556"
     inkscape:cx="-32.79661"
     inkscape:cy="180"
     inkscape:window-x="-8"
     inkscape:window-y="-8"
     inkscape:window-maximized="1"
     inkscape:current-layer="svg25" />
  <defs
     id="defs12">
    <linearGradient
       id="linearGradient852">
      <stop
         id="stop848"
         style="stop-color:#ff0000;stop-opacity:1"
         offset="0" />
      <stop
         id="stop850"
         style="stop-color:#ffd42a;stop-opacity:1"
         offset="1" />
    </linearGradient>
    <linearGradient
       id="linearGradient840">
      <stop
         id="stop836"
         style="stop-color:#ff6600;stop-opacity:1"
         offset="0" />
      <stop
         id="stop838"
         style="stop-color:#ffe680;stop-opacity:1"
         offset="1" />
    </linearGradient>
    <linearGradient
       id="gradMain">
      <stop
         offset="0"
         style="stop-color:#ffd42a;stop-opacity:1"
         id="stop2" />
      <stop
         offset="1"
         style="stop-color:#ff2a7f;stop-opacity:1"
         id="stop4" />
    </linearGradient>
    <linearGradient
       xlink:href="#linearGradient852"
       id="gradFrame"
       x1="-421.33899"
       y1="-50.830505"
       x2="47.525425"
       y2="17.813559"
       gradientUnits="userSpaceOnUse"
       gradientTransform="translate(384,208)" />
    <linearGradient
       xlink:href="#linearGradient840"
       id="gradNote"
       x1="-366.42374"
       y1="-27.94915"
       x2="-44"
       y2="-31"
       gradientUnits="userSpaceOnUse"
       gradientTransform="translate(384,208)" />
    <linearGradient
       xlink:href="#gradMain"
       id="gradFlower"
       x1="-24.341501"
       y1="-16.319315"
       x2="168.7847"
       y2="-16.319315"
       gradientUnits="userSpaceOnUse" />
    <linearGradient
       xlink:href="#gradMain"
       id="gradLetter"
       x1="-332.74829"
       y1="-34.563663"
       x2="-39.463409"
       y2="-34.563663"
       gradientUnits="userSpaceOnUse"
       gradientTransform="translate(384,208)" />
    <linearGradient
       xlink:href="#gradMain"
       id="gradNursery"
       x1="-51.683796"
       y1="72.543839"
       x2="67.39209"
       y2="72.543839"
       gradientUnits="userSpaceOnUse" />
  </defs>
  <path
     d="m 32.72727,133.85455 v 0 c 0,9.03272 -7.33091,16.36363 -16.36363,16.36363 v 0 C 7.33091,150.21818 0,142.88727 0,133.85455 v 0 -92.94546 C 0,18.32727 18.32727,0 40.90909,0 h 92.94546 v 0 c 9.03272,0 16.36363,7.33091 16.36363,16.36364 v 0 c 0,9.03272 -7.33091,16.36363 -16.36363,16.36363 v 0 L 89.306628,20.52388 C 76.238983,16.944149 12.945197,78.061909 17.473033,90.832052 Z M 226.14545,32.72727 v 0 c -9.03272,0 -16.36363,-7.33091 -16.36363,-16.36363 v 0 C 209.78182,7.33091 217.11273,0 226.14545,0 v 0 h 92.94546 C 341.67273,0 360,18.32727 360,40.90909 v 92.94546 0 c 0,9.03272 -7.33091,16.36363 -16.36364,16.36363 v 0 c -9.03272,0 -16.36363,-7.33091 -16.36363,-16.36363 v 0 l 9.15254,-33.869956 C 339.95981,86.904653 280.50592,14.742756 267.64252,18.998456 Z m 101.12728,193.41818 v 0 c 0,-9.03272 7.33091,-16.36363 16.36363,-16.36363 v 0 c 9.03273,0 16.36364,7.33091 16.36364,16.36363 v 0 92.94546 C 360,341.67273 341.67273,360 319.09091,360 h -90 v 0 c -9.03273,0 -16.36364,-7.33091 -16.36364,-16.36364 v 0 c 0,-9.03272 7.33091,-16.36363 16.36364,-16.36363 v 0 l 52.28043,13.72881 c 13.10478,3.44131 63.55604,-74.68373 58.10478,-87.08783 z M 133.85455,327.27273 v 0 c 9.03272,0 16.36363,7.33091 16.36363,16.36363 v 0 c 0,9.03273 -7.33091,16.36364 -16.36363,16.36364 v 0 H 40.90909 C 18.32727,360 0,341.67273 0,319.09091 v -92.94546 0 c 0,-9.03272 7.33091,-16.36363 16.36364,-16.36363 v 0 c 9.03272,0 16.36363,7.33091 16.36363,16.36363 v 0 l -15.254237,38.44623 c -4.996898,12.594 62.323392,84.53987 74.884443,79.46071 z"
     id="frame"
     style="fill:url(#gradFrame)"
     inkscape:connector-curvature="0"
     sodipodi:nodetypes="ccccccssccccccsscccccccssccccccsscccccccssccccccsscccccccssccccccssc" />
  <path
     d="m 146.83122,118.57838 c 4.48674,-5.20045 7.46309,-11.77796 8.04059,-18.28624 0.36649,-4.17728 -0.9773,-8.56228 -3.88703,-12.68573 -4.56447,-6.4775 -16.98141,11.239642 -24.55556,7.723952 -5.65285,-2.62331 -6.41845,-26.456372 -10.19443,-29.995152 l -0.67744,-0.63083 c -2.23227,-2.0771 -4.75328,-4.43116 -5.15308,-6.40826 -0.39981,-2.00017 -3.02078,-3.42337 -5.88608,-3.30798 -2.90971,0.13847 -5.16419,1.80785 -5.16419,3.8311 v 68.54453 c -4.6533,-1.95402 -10.3839,-3.15412 -16.65865,-3.15412 -15.30377,0 -27.76446,6.90061 -27.76446,15.38598 0,8.48536 12.46069,-1.39369 27.76446,-1.39369 15.30376,0 27.76445,9.87905 27.76445,1.39369 V 94.76088 c 8.34045,2.20789 21.98944,7.83147 25.74318,20.9634 -0.69966,0.71545 -1.36599,1.48475 -2.1434,2.10019 -2.03237,1.59245 -1.81024,4.02343 0.49975,5.42356 2.2878,1.4155 5.79723,1.24626 7.82958,-0.34619 1.48817,-1.16933 2.80977,-2.53869 4.07583,-3.96958 0.13323,-0.1077 0.25578,-0.2231 0.36648,-0.35388 z"
     id="symbolNote"
     style="fill:url(#gradNote)"
     inkscape:connector-curvature="0"
     sodipodi:nodetypes="ccccccccscssssccccccc" />
  <path
     d="m 51.16,34.74 c 8.2,-2.66 8.37,-12.49 8.37,-12.9 0,-0.21637 -0.07018,-0.426904 -0.2,-0.6 C 59.09,20.9 53.18,13.05 44.98,15.72 42.718434,16.48277 31.577342,29.00317 29.695356,30.471034 30.517132,28.227508 39.974656,14.47916 40,12.09 40,3.47 30.71,0.27 30.32,0.14 30.112427,0.06989006 29.887573,0.06989006 29.68,0.14 29.29,0.27 20,3.47 20,12.14 20.02787,14.528917 28.876027,28.226842 29.695356,30.471034 27.810453,28.984152 17.271649,16.496717 15,15.72 6.81,13.05 0.91,20.9 0.67,21.24 c -0.12982213,0.173096 -0.2,0.38363 -0.2,0.6 0,0.41 0.17,10.24 8.37,12.9 2.278402,0.717406 18.468325,-4.180235 20.855356,-4.268966 C 27.712708,31.799837 12.165738,38.675873 10.74,40.59 c -5.07,7 0.57,15 0.82,15.36 0.120516,0.18013 0.301364,0.311333 0.51,0.37 C 13.672857,56.778902 15.332762,57.007854 17,57 24.1,57 27.695356,37.221034 29.695356,30.471034 31.745356,37.261034 35.93,57 43,57 c 1.664366,0.0037 3.320847,-0.228654 4.92,-0.69 0.208636,-0.05867 0.389484,-0.18987 0.51,-0.37 0.25,-0.34 5.89,-8.38 0.82,-15.36 C 47.822223,38.671179 31.670218,31.805974 29.695356,30.471034 32.081709,30.560834 48.88054,35.451904 51.16,34.74 Z"
     id="symbolFlower"
     style="fill:url(#gradFlower)"
     transform="matrix(1.6931934,0,0,1.7570747,54.21487,205.67426)"
     inkscape:connector-curvature="0"
     sodipodi:nodetypes="csccccccccccsccccccccccccc" />
  <text
     style="font-size:194px;line-height:1.25;font-family:sans-serif;fill:url(#gradLetter)"
     x="171.66603"
     y="336.82895"
     id="symbolLetter"
     transform="scale(1.1149569,0.89689565)">a</text>
  <g
     id="symbolNursery"
     style="fill:url(#gradNursery)"
     transform="matrix(2.7461479,0,0,1.8706511,154.93135,41.29579)">
    <circle
       cx="36"
       cy="15.75"
       r="7.5"
       id="circle18" />
    <path
       d="M 28,39.5 V 34 l -6,6 a 2.475,2.475 0 0 1 -3.5,-3.5 l 10,-10 c 1,-1 1.5,-1.5 3,-1.5 h 9 c 1.5,0 2,0.5 3,1.5 l 10,10 A 2.475,2.475 0 0 1 50,40 l -6,-6 v 5.5 z"
       id="path20" />
    <path
       id="legLeft"
       d="M 34,48.5 29.5,53 34,57.5 A 2.475,2.475 0 0 1 30.5,61 L 23,53.5 a 4.2,4.2 0 0 1 0,-6 l 5,-5 z" />
    <use
       id="legRight"
       xlink:href="#legLeft"
       transform="matrix(-1,0,0,1,72,0)"
       width="100%"
       height="100%" />
  </g>
</svg>
