<?xml version="1.0" encoding="UTF-8" standalone="no"?>
<!-- Generator: Gravit.io -->

<svg
   xmlns:dc="http://purl.org/dc/elements/1.1/"
   xmlns:cc="http://creativecommons.org/ns#"
   xmlns:rdf="http://www.w3.org/1999/02/22-rdf-syntax-ns#"
   xmlns:svg="http://www.w3.org/2000/svg"
   xmlns="http://www.w3.org/2000/svg"
   xmlns:sodipodi="http://sodipodi.sourceforge.net/DTD/sodipodi-0.dtd"
   xmlns:inkscape="http://www.inkscape.org/namespaces/inkscape"
   style="isolation:isolate"
   viewBox="0 0 48 48"
   width="48pt"
   height="48pt"
   version="1.1"
   id="svg9"
   sodipodi:docname="accessories-dictionary.svg"
   inkscape:version="0.92.3 (2405546, 2018-03-11)">
  <metadata
     id="metadata15">
    <rdf:RDF>
      <cc:Work
         rdf:about="">
        <dc:format>image/svg+xml</dc:format>
        <dc:type
           rdf:resource="http://purl.org/dc/dcmitype/StillImage" />
      </cc:Work>
    </rdf:RDF>
  </metadata>
  <defs
     id="defs13" />
  <sodipodi:namedview
     pagecolor="#ffffff"
     bordercolor="#666666"
     borderopacity="1"
     objecttolerance="10"
     gridtolerance="10"
     guidetolerance="10"
     inkscape:pageopacity="0"
     inkscape:pageshadow="2"
     inkscape:window-width="1152"
     inkscape:window-height="802"
     id="namedview11"
     showgrid="false"
     inkscape:zoom="3.6875"
     inkscape:cx="-5.8305085"
     inkscape:cy="32"
     inkscape:window-x="-8"
     inkscape:window-y="-8"
     inkscape:window-maximized="1"
     inkscape:current-layer="svg9" />
  <linearGradient
     id="_lgradient_33"
     x1="0"
     y1="0.5"
     x2="0.9074880558539661"
     y2="0.9200778838291643"
     gradientTransform="matrix(43,0,0,44,3,2)"
     gradientUnits="userSpaceOnUse">
    <stop
       offset="0%"
       stop-opacity="1"
       style="stop-color:rgb(69,104,220)"
       id="stop2" />
    <stop
       offset="98.69565217391305%"
       stop-opacity="1"
       style="stop-color:rgb(176,106,179)"
       id="stop4" />
  </linearGradient>
  <path
     d="M 14,46 H 8 C 5.24,46 3,43.76 3,41 V 14 h 4 v 25 c 0,1.656 1.344,3 3,3 V 42 6 6 C 8.344,6 7,7.344 7,9 v 5 H 3 V 7 C 3,4.24 5.24,2 8,2 h 6 2 26 c 2.208,0 4,1.792 4,4 v 22 0 c 0,1.104 -0.896,2 -2,2 v 0 c -1.104,0 -2,-0.896 -2,-2 v 0 L 44.440678,16.135593 C 44.663128,15.054237 33.973995,3.4013501 32.881356,3.559322 L 16,6 h -2 v 36 h 2 l 11.59322,2.440678 C 28.673539,44.668114 42,41.104 42,40 v -2 0 c 0,-1.104 0.896,-2 2,-2 v 0 c 1.104,0 2,0.896 2,2 v 0 4 c 0,2.208 -1.792,4 -4,4 H 16 Z m 6.744,-32.492 h -0.095 v 0 c -0.149333,0.447333 -0.317333,0.945333 -0.504,1.494 v 0 0 c -0.186,0.548 -0.353667,1.104333 -0.503,1.669 v 0 h 1.981 v 0 c -0.149333,-0.575333 -0.301,-1.137 -0.455,-1.685 v 0 0 c -0.154667,-0.548667 -0.296,-1.041333 -0.424,-1.478 z m 9.106,4.361 h -3.419 v 0 c -0.07467,-0.117333 -0.143667,-0.271667 -0.207,-0.463 v 0 0 C 26.16,17.214 26.128,17.011667 26.128,16.799 v 0 0 c 0,-0.394 0.09033,-0.679 0.271,-0.855 v 0 0 c 0.181333,-0.175333 0.415667,-0.263 0.703,-0.263 v 0 h 3.419 v 0 c 0.064,0.116667 0.130333,0.271 0.199,0.463 v 0 0 c 0.06933,0.191333 0.104,0.393667 0.104,0.607 v 0 0 c 0,0.394 -0.09033,0.678667 -0.271,0.854 v 0 0 c -0.181333,0.176 -0.415667,0.264 -0.703,0.264 z m 2.7,-0.096 3.674,-4.377 h -3.93 v 0 c -0.07467,-0.117333 -0.144,-0.277 -0.208,-0.479 v 0 0 C 32.022,12.714333 31.99,12.501333 31.99,12.278 v 0 0 c 0,-0.415333 0.09333,-0.713667 0.28,-0.895 v 0 0 c 0.186667,-0.180667 0.429,-0.271 0.727,-0.271 v 0 h 5.958 v 0 c 0.468667,0.383333 0.703,0.894333 0.703,1.533 v 0 0 c 0,0.266667 -0.06133,0.530333 -0.184,0.791 v 0 0 c -0.122,0.260667 -0.279,0.508333 -0.471,0.743 v 0 l -3.626,4.377 h 4.089 v 0 c 0.07467,0.117333 0.144,0.277 0.208,0.479 v 0 0 c 0.064,0.202667 0.096,0.415667 0.096,0.639 v 0 0 c 0,0.415333 -0.09333,0.713667 -0.28,0.895 v 0 0 c -0.186,0.180667 -0.428,0.271 -0.726,0.271 v 0 H 32.47 v 0 c -0.181333,-0.148667 -0.330667,-0.351 -0.448,-0.607 v 0 0 c -0.116667,-0.255333 -0.175,-0.548 -0.175,-0.878 v 0 0 c 0,-0.266667 0.069,-0.538333 0.207,-0.815 v 0 0 c 0.138667,-0.276667 0.304,-0.532333 0.496,-0.767 z M 26,29 h 12 c 1.104,0 2,0.896 2,2 v 0 c 0,1.104 -0.896,2 -2,2 H 26 c -1.104,0 -2,-0.896 -2,-2 v 0 c 0,-1.104 0.896,-2 2,-2 z M 18.732,11.447 v 0 0 c 0.180667,-0.106 0.454667,-0.207 0.822,-0.303 v 0 0 C 19.921333,11.048 20.291667,11 20.665,11 v 0 0 c 0.532,0 1.003,0.07733 1.413,0.232 v 0 0 c 0.41,0.154 0.673667,0.396 0.791,0.726 v 0 0 c 0.192,0.554 0.399667,1.198333 0.623,1.933 v 0 0 c 0.223333,0.735333 0.447,1.494333 0.671,2.277 v 0 0 c 0.223333,0.782667 0.441667,1.554667 0.655,2.316 v 0 0 c 0.212667,0.761333 0.399,1.435 0.559,2.021 v 0 0 c -0.128,0.148667 -0.319667,0.268333 -0.575,0.359 v 0 0 C 24.546667,20.954667 24.243,21 23.891,21 v 0 0 c -0.255333,0 -0.471,-0.02133 -0.647,-0.064 v 0 0 c -0.175333,-0.04267 -0.319,-0.106667 -0.431,-0.192 v 0 0 c -0.112,-0.08467 -0.202333,-0.196333 -0.271,-0.335 v 0 0 c -0.06933,-0.138667 -0.130667,-0.298333 -0.184,-0.479 v 0 L 22.07,18.827 h -2.891 v 0 c -0.08533,0.32 -0.170667,0.650333 -0.256,0.991 v 0 0 c -0.08467,0.340667 -0.169667,0.670667 -0.255,0.99 v 0 0 c -0.149333,0.05333 -0.306667,0.09867 -0.472,0.136 v 0 0 C 18.031333,20.981333 17.831667,21 17.597,21 v 0 0 c -0.542667,0 -0.944667,-0.09333 -1.206,-0.28 v 0 0 C 16.130333,20.534 16,20.276 16,19.946 v 0 0 c 0,-0.149333 0.02133,-0.298667 0.064,-0.448 v 0 0 c 0.04267,-0.148667 0.09067,-0.324333 0.144,-0.527 v 0 0 c 0.074,-0.287333 0.177667,-0.644 0.311,-1.07 v 0 0 c 0.133333,-0.426 0.279667,-0.886667 0.439,-1.382 v 0 0 c 0.16,-0.495333 0.330667,-1.003667 0.512,-1.525 v 0 0 c 0.180667,-0.522 0.351,-1.014667 0.511,-1.478 v 0 0 c 0.159333,-0.463333 0.305667,-0.876 0.439,-1.238 v 0 0 c 0.133333,-0.362 0.237333,-0.639 0.312,-0.831 z M 32,36 h 6 c 1.104,0 2,0.896 2,2 v 0 c 0,1.104 -0.896,2 -2,2 h -6 c -1.104,0 -2,-0.896 -2,-2 v 0 c 0,-1.104 0.896,-2 2,-2 z"
     id="path7"
     inkscape:connector-curvature="0"
     style="fill:url(#_lgradient_33);fill-rule:evenodd"
     sodipodi:nodetypes="cssccsccccsccssccssccccccssccccssccccccsscccccccccccccccccccccccccccccccccccccccccccccccccccccccccccccccccccccccccccccccccccccccccccccccccccssccssccsccccccccccccccccccccccccccccccccccccccccccccccccccccccccccccccccccccccccccccccccccccccccssccssccs" />
</svg>
