<?xml version="1.0" encoding="UTF-8" standalone="no"?>
<!-- Generator: Gravit.io -->

<svg
   xmlns:dc="http://purl.org/dc/elements/1.1/"
   xmlns:cc="http://creativecommons.org/ns#"
   xmlns:rdf="http://www.w3.org/1999/02/22-rdf-syntax-ns#"
   xmlns:svg="http://www.w3.org/2000/svg"
   xmlns="http://www.w3.org/2000/svg"
   xmlns:sodipodi="http://sodipodi.sourceforge.net/DTD/sodipodi-0.dtd"
   xmlns:inkscape="http://www.inkscape.org/namespaces/inkscape"
   style="isolation:isolate"
   viewBox="0 0 48 48"
   width="48pt"
   height="48pt"
   version="1.1"
   id="svg16"
   sodipodi:docname="anjuta.svg"
   inkscape:version="0.92.3 (2405546, 2018-03-11)">
  <metadata
     id="metadata22">
    <rdf:RDF>
      <cc:Work
         rdf:about="">
        <dc:format>image/svg+xml</dc:format>
        <dc:type
           rdf:resource="http://purl.org/dc/dcmitype/StillImage" />
      </cc:Work>
    </rdf:RDF>
  </metadata>
  <defs
     id="defs20" />
  <sodipodi:namedview
     pagecolor="#ffffff"
     bordercolor="#666666"
     borderopacity="1"
     objecttolerance="10"
     gridtolerance="10"
     guidetolerance="10"
     inkscape:pageopacity="0"
     inkscape:pageshadow="2"
     inkscape:window-width="1152"
     inkscape:window-height="802"
     id="namedview18"
     showgrid="false"
     inkscape:zoom="3.6875"
     inkscape:cx="-5.8305085"
     inkscape:cy="32"
     inkscape:window-x="-8"
     inkscape:window-y="-8"
     inkscape:window-maximized="1"
     inkscape:current-layer="svg16" />
  <linearGradient
     id="_lgradient_4"
     x1="0.55824018"
     y1="0.591214"
     x2="0.9074880558539661"
     y2="0.9200778838291643"
     gradientTransform="matrix(47,0,0,46.826,0.90677966,1.4875593)"
     gradientUnits="userSpaceOnUse">
    <stop
       offset="0%"
       stop-opacity="1"
       style="stop-color:#00ccff;stop-opacity:1"
       id="stop2" />
    <stop
       offset="98.69565217391305%"
       stop-opacity="1"
       style="stop-color:#0066ff;stop-opacity:1"
       id="stop4" />
  </linearGradient>
  <path
     d="m 9.4767797,37.343559 1.2800003,1.26 c -0.644,0.782 -1.6540003,1.742 -1.6540003,1.742 -0.776,0.611 -1.984,0.423 -2.695,-0.421 l -10e-4,-0.001 c -3.55,-4.23 3.0423729,-11.410508 3.0423729,-16.940508 0,-5.77 -6.4123729,-9.509492 -2.5723729,-13.8094917 v 0 c 0.734,-0.822 1.998,-0.894 2.82,-0.16 v 0 c 0.8220003,0.734 0.8940003,1.9979997 0.16,2.8199997 v 0 c -3.19,3.57 -5.7635593,7.78322 -5.7635593,12.57322 0,4.58 2.4335593,9.42678 5.3835593,12.93678 z M 26.89678,5.4735593 v 0 c -1.098,-0.143 -1.876,-1.147 -1.735,-2.24 v 0 c 0.141,-1.093 1.142,-1.868 2.235,-1.73 v 0 c 3.818805,3.5067928 1.809728,17.0954077 14.66,7.78 3.77,4.2899997 -2.285593,6.3623727 -2.285593,12.0723727 0,6.23 5.655593,15.667627 1.255593,20.077627 -19.796585,-8.02477 -14.740445,3.696727 -16.62,6.88 -1.35752,2.299138 -5.32,-0.45 -7.84,-1.34 v 0 c -1.043,-0.37 -1.59,-1.515 -1.22,-2.555 v 0 c 0.37,-1.04 1.512,-1.585 2.55,-1.215 v 0 c 2.09,0.73 4.29,1.11 6.51,1.11 5.17,0 10.13,-2.06 13.79,-5.71 3.65,-3.66 5.71,-8.62 5.71,-13.79 0,-4.74 -1.72,-9.32 -4.86,-12.88 -3.13,-3.5599997 -7.45,-5.8599997 -12.15,-6.4599997 z"
     id="path7"
     inkscape:connector-curvature="0"
     style="fill:url(#_lgradient_4);fill-rule:evenodd"
     sodipodi:nodetypes="cccccsccccccsccccccccscsccccccscscc" />
  <linearGradient
     id="_lgradient_5"
     x1="-0.0061687492"
     y1="0.23765264"
     x2="0.9074880558539661"
     y2="0.9200778838291643"
     gradientTransform="matrix(32.854364,0,0,38.166583,8.3686612,4.7941226)"
     gradientUnits="userSpaceOnUse">
    <stop
       offset="0%"
       stop-opacity="1"
       style="stop-color:#00ffcc;stop-opacity:1"
       id="stop9" />
    <stop
       offset="98.69565217391305%"
       stop-opacity="1"
       style="stop-color:#b3ff80;stop-opacity:1"
       id="stop11" />
  </linearGradient>
  <path
     d="m 23.332539,14.304999 c -0.239151,0.132543 -0.423497,0.33893 -0.524139,0.585081 -0.119576,0.293487 -0.119576,0.615376 0.01,0.899396 0.12954,0.293487 0.378656,0.520703 0.687559,0.634311 v 0 c 0.707489,0.265085 1.444871,0.444964 2.192218,0.539638 0.587913,0.06627 1.165861,0.09467 1.753774,0.09467 0.348762,0 0.687559,0.01893 1.036321,0.0568 0.139505,0.0095 0.288974,0.04734 0.418514,0.10414 0.338797,0.312422 0.627771,0.672181 0.856958,1.069808 0.348762,0.577507 0.66763,1.164482 0.956604,1.770391 0.279009,0.586974 0.587913,1.164481 0.916745,1.741988 0.338798,0.605909 0.747347,1.173948 1.225649,1.694651 0.508196,0.530171 1.096109,0.984602 1.74381,1.353828 0.597877,0.350291 1.205719,0.681648 1.83349,0.99407 0.478302,0.236683 0.94664,0.482833 1.395048,0.757386 0.139505,0.08521 0.269045,0.179879 0.38862,0.28402 0.01993,0.01893 0.03986,0.03787 0.04982,0.0568 0.298938,0.558572 0.448408,1.183415 0.458372,1.808259 0,0.492301 -0.09965,0.984602 -0.298938,1.439034 -0.159434,0.397628 -0.398585,0.757386 -0.717453,1.06034 -0.209257,0.208282 -0.468337,0.359759 -0.757311,0.473367 -0.298939,0.10414 -0.617807,0.151477 -0.936675,0.151477 -0.398585,-0.0095 -0.787205,-0.0568 -1.165861,-0.160945 -0.448408,-0.113607 -0.876887,-0.274552 -1.295401,-0.473366 -0.677595,-0.312422 -1.325295,-0.67218 -1.953067,-1.069808 -0.438443,-0.302954 -0.866922,-0.615376 -1.275472,-0.9562 0,0 -0.01,0 -0.01,-0.0095 l -0.189328,-0.151478 c -0.01,0 -0.01,-0.0095 -0.01993,-0.0095 -0.607842,-0.473366 -1.315331,-0.833125 -2.072642,-1.041406 -0.777241,-0.217748 -1.574411,-0.331356 -2.381546,-0.340824 v 0 h -0.199292 -0.03986 c -0.548054,0.0095 -1.096108,0.03787 -1.644163,0.09467 -0.458372,0.0568 -0.916745,0.08521 -1.375118,0.08521 -0.308903,0.0095 -0.607842,-0.0284 -0.906781,-0.104141 -0.219221,-0.0568 -0.418514,-0.170412 -0.587913,-0.312422 -0.298938,-0.274552 -0.508195,-0.624843 -0.607842,-1.013004 -0.109611,-0.539637 -0.159434,-1.088742 -0.139504,-1.637847 v -0.03787 -0.28402 l 0.01,-0.265085 c 0.01993,-0.766853 -0.04982,-1.524239 -0.209257,-2.272158 -0.05979,-0.302955 7.047017,-0.577507 6.768007,-0.747919 -0.269045,-0.179879 -7.903974,-0.236683 -8.232807,-0.179879 -0.318868,0.06627 -0.607842,0.24615 -0.787205,0.501768 -0.189328,0.265085 -0.249116,0.586974 -0.189328,0.889929 0.119575,0.577507 0.179363,1.164481 0.159434,1.751455 v 0.0284 l -0.01,0.293487 v 0.265086 c -0.01993,0.728984 0.03986,1.467435 0.199293,2.186952 0.199292,0.85206 0.657665,1.637848 1.33526,2.243757 0.458372,0.407095 1.016391,0.700582 1.614269,0.870994 0.528125,0.14201 1.076179,0.198814 1.634198,0.189346 0.05481,-9.46e-4 0.109611,-0.0019 0.164417,-0.0047 0.01694,0.0047 0.03587,0.0047 0.0548,0.0028 v 0.0019 c 0.01993,1.155014 0.169399,2.319496 0.458373,3.446108 0.298938,1.230752 0.707488,2.44257 1.215684,3.607051 0.488267,1.145547 1.106073,2.23429 1.85342,3.247294 0.338797,0.463899 0.727418,0.908863 1.155897,1.306491 0.398585,0.38816 0.856957,0.719517 1.355189,0.984602 0.288974,0.160944 0.627771,0.198814 0.946639,0.123075 0.318868,-0.08521 0.587913,-0.28402 0.757311,-0.558572 0.159434,-0.265085 0.209258,-0.596442 0.119576,-0.899396 -0.08968,-0.302955 -0.298939,-0.558573 -0.587913,-0.71005 v 0 c -0.298939,-0.170412 -0.577948,-0.378693 -0.827064,-0.615376 -0.328832,-0.302955 -0.617806,-0.634311 -0.876887,-0.984602 -0.637736,-0.870994 -1.175825,-1.80826 -1.59434,-2.792862 -0.458372,-1.050873 -0.827064,-2.139616 -1.086144,-3.247293 -0.248119,-0.952413 -0.377659,-1.933228 -0.398585,-2.922564 0.009,-9.47e-4 0.01694,-0.0028 0.02591,-0.0038 -0.01096,-0.01136 -0.01993,-0.02272 -0.02491,-0.03314 -9.97e-4,-0.03503 0,-0.071 0.003,-0.10698 -0.002,-0.0057 0.003,-0.0095 0.006,-0.0142 v 0 c 0.09068,-0.0047 0.179363,-0.0057 0.269045,-0.0057 h 0.179363 c 0.587913,0.0095 1.165861,0.09467 1.72388,0.246151 0.428479,0.123075 0.837029,0.321889 1.18579,0.596441 l 0.179364,0.14201 c 0.478302,0.388161 0.966568,0.757386 1.474764,1.09821 0.727418,0.473367 1.494694,0.889929 2.281899,1.249687 0.548055,0.265086 1.126003,0.473367 1.72388,0.634311 0.587913,0.160945 1.195755,0.236684 1.813562,0.246151 0.627771,0 1.245578,-0.104141 1.833491,-0.312422 0.627771,-0.217748 1.185789,-0.56804 1.654127,-1.013004 0.548054,-0.53017 0.976533,-1.164481 1.265507,-1.855596 0.308903,-0.738452 0.468337,-1.52424 0.468337,-2.319495 -0.01,-1.003537 -0.25908,-1.997606 -0.737382,-2.897002 -0.15946,-0.283906 -0.368717,-0.530057 -0.617833,-0.738338 -0.219221,-0.179879 -0.448408,-0.350291 -0.697523,-0.501768 -0.508196,-0.312422 -1.046285,-0.596442 -1.584375,-0.861527 -0.567983,-0.28402 -1.126002,-0.586974 -1.674057,-0.908864 -0.438443,-0.255617 -0.846993,-0.558572 -1.195755,-0.91833 -0.338797,-0.378693 -0.637736,-0.795256 -0.886851,-1.24022 -0.298939,-0.520703 -0.587913,-1.060341 -0.846993,-1.599978 -0.318868,-0.662713 -0.66763,-1.315959 -1.046286,-1.95027 -0.40855,-0.700582 -0.946639,-1.325426 -1.584375,-1.855596 -0.488267,-0.274553 -1.026357,-0.444964 -1.59434,-0.511236 -0.27602,-0.0303 -0.556026,-0.04923 -0.837029,-0.05964 0.01694,0.0047 0.03388,0.01136 0.04982,0.03124 -0.161424,-0.675022 -0.22719,-1.364243 -0.209254,-2.054411 0,-0.350292 0.01,-0.700583 0.01993,-1.050874 0.01,-0.302954 0.01993,-0.615376 0.01993,-0.91833 0,-0.321889 -0.01,-0.653246 -0.04982,-0.9656676 C 27.72096,9.3895633 27.631278,9.0487395 27.491773,8.717383 27.272552,8.281886 26.993542,7.8653236 26.654745,7.4866305 26.325912,7.0890027 25.97715,6.719777 25.608459,6.3600185 25.279627,6.0286621 24.930865,5.7162403 24.562174,5.4227531 24.432634,5.3186125 24.283164,5.2144719 24.133695,5.1103313 23.894544,4.9399194 23.595605,4.8263115 23.286702,4.7979095 c -0.368691,-0.028402 -0.737382,0.094673 -0.996463,0.3408238 -0.269045,0.2461505 -0.418514,0.5869743 -0.398585,0.9372654 0,0.047337 0,0.085206 0.01,0.1325426 l 0.01,0.047337 c 0,0.028402 0.01,0.056804 0.01993,0.085206 0.06975,0.3124218 0.09965,0.6437782 0.08968,0.9751347 -0.01,0.7668535 -0.06975,1.533707 -0.169398,2.2910932 -0.08968,0.7100498 -0.189328,1.4106318 -0.308904,2.1017468 -0.288974,-0.01893 -0.577948,-0.03787 -0.866922,-0.03787 -0.338797,0.0095 -0.66763,0.0284 -1.006427,0.07574 -0.239221,-0.340825 -0.468407,-0.691116 -0.6677,-1.060342 C 18.643187,10.061743 18.314354,9.4274326 17.995486,8.7836543 17.756335,8.3008206 17.507219,7.8179869 17.22821,7.3446206 17.128564,7.155274 16.999023,6.9753948 16.859519,6.8049829 16.620368,6.4736265 16.251677,6.2558779 15.833162,6.1896067 c -0.12954,-0.018935 -0.269044,-0.018935 -0.398585,0 h -0.02989 c -0.08968,0.00947 -0.179364,0.037869 -0.259081,0.066271 -0.279009,0.094673 -0.51816,0.2650852 -0.697523,0.4923011 -0.109611,0.1420099 -0.209258,0.2934871 -0.288975,0.463899 -0.149469,0.3029545 -0.25908,0.6343109 -0.328832,0.9656674 -0.179363,0.7857882 -0.269045,1.5810436 -0.25908,2.3857668 -0.01,0.681647 0.05979,1.372762 0.209257,2.035475 0.109611,0.397627 0.269045,0.785788 0.468337,1.145546 0.209257,0.454432 0.438444,0.899396 0.66763,1.344361 0.01993,0.0284 0.03986,0.06627 0.04982,0.10414 -0.189328,0.160945 -0.378656,0.321889 -0.577948,0.463899 -0.40855,0.293488 -0.787206,0.615377 -1.135967,0.965668 -0.428479,0.435497 -0.767277,0.946732 -1.016392,1.495837 -0.179363,0.435498 -0.328833,0.880462 -0.438444,1.334894 -0.119575,0.492301 -0.219221,0.994069 -0.298938,1.495837 -0.159434,1.13608 -0.298939,2.272159 -0.398585,3.417705 -0.08968,0.937266 -0.189328,1.883999 -0.308904,2.821264 -0.109611,0.927798 -0.25908,1.855596 -0.448408,2.783394 -0.179363,0.85206 -0.4185142,1.685185 -0.7174532,2.508842 -0.25908,0.71005 -0.607842,1.391697 -1.0462855,2.016541 -0.179364,0.265085 -0.2491161,0.577507 -0.189328,0.889928 0.06975,0.302955 0.25908,0.577507 0.538089,0.747919 0.2790105,0.170412 0.6078435,0.236684 0.9366755,0.17988 0.3188682,-0.06627 0.6078422,-0.246151 0.7872052,-0.511236 0.558019,-0.795256 0.996463,-1.647315 1.325296,-2.546711 0.338797,-0.927798 0.607842,-1.874531 0.807134,-2.840198 0.199293,-0.975135 0.358727,-1.959737 0.488267,-2.953806 0.109611,-0.965668 0.219222,-1.921868 0.308903,-2.887535 0.09965,-1.107678 0.229187,-2.205888 0.388621,-3.29463 0.06975,-0.444965 0.149469,-0.870994 0.25908,-1.306491 0.06975,-0.32189 0.179363,-0.634311 0.308903,-0.946733 0.12954,-0.28402 0.308904,-0.549105 0.528125,-0.785788 0.259081,-0.255618 0.548055,-0.492301 0.837029,-0.71005 0.757311,-0.549105 1.44487,-1.183416 2.052712,-1.874531 -0.25908,-0.539637 -0.528125,-1.079275 -0.807134,-1.609445 -0.229187,-0.444964 -0.448408,-0.889929 -0.66763,-1.34436 -0.109611,-0.208282 -0.209257,-0.42603 -0.279009,-0.653246 -0.09965,-0.492301 -0.14947,-0.984602 -0.139505,-1.48637 v -0.132543 0 0 c 0.239151,0.454432 0.478302,0.908864 0.737382,1.363295 0.51816,0.937265 1.155896,1.80826 1.903243,2.58458 0.637736,-0.198813 1.305366,-0.312421 1.982961,-0.340823 0.865926,0.02556 1.72388,0.134436 2.566887,0.329463 0.02192,-0.02935 0.04783,-0.05018 0.07972,-0.06248 z m 0.258084,-0.08047 c 0.307907,-1.435247 0.55204,-2.870493 0.7324,-4.3237277 0.05979,-0.4070951 0.09965,-0.8236575 0.12954,-1.2402199 0.09965,0.1136079 0.189328,0.2177485 0.279009,0.3218891 0.189328,0.2177485 0.348762,0.4449644 0.478302,0.6911149 0.03986,0.094673 0.05979,0.1798792 0.05979,0.2745525 0.02989,0.2461501 0.03986,0.4923011 0.03986,0.7384511 0,0.28402 -0.01,0.577507 -0.01993,0.870994 -0.01,0.359759 -0.01,0.719517 -0.01993,1.079276 -0.01295,0.638097 0.0279,1.280929 0.133526,1.912399 0,-0.01988 0.01096,-0.0303 0.03886,-0.02935 -0.346769,-0.06911 -0.687559,-0.168518 -1.019381,-0.29254 -0.298939,-0.113607 -0.647701,-0.113607 -0.946639,0.0095 -0.01,0.0038 -0.01893,0.0076 -0.0279,0.01325 -0.03986,0.01515 -0.07872,0.03408 0.142494,-0.02556 z"
     id="path14"
     inkscape:connector-curvature="0"
     style="fill:url(#_lgradient_5);fill-rule:evenodd;stroke-width:1"
     sodipodi:nodetypes="ccccccsccccccccccccccccccccccccccccccccccccccccccccccccccccccccccccsccccccccccccscccccccccccccccccccccccccccscccccccccsccccccccscccccccccccccccccccccccccsccccccccccccccccccccccccccccccscccccccc" />
</svg>
