<?xml version="1.0" encoding="UTF-8" standalone="no"?>
<!-- Generator: Gravit.io -->

<svg
   xmlns:dc="http://purl.org/dc/elements/1.1/"
   xmlns:cc="http://creativecommons.org/ns#"
   xmlns:rdf="http://www.w3.org/1999/02/22-rdf-syntax-ns#"
   xmlns:svg="http://www.w3.org/2000/svg"
   xmlns="http://www.w3.org/2000/svg"
   xmlns:sodipodi="http://sodipodi.sourceforge.net/DTD/sodipodi-0.dtd"
   xmlns:inkscape="http://www.inkscape.org/namespaces/inkscape"
   style="isolation:isolate"
   viewBox="0 0 48 48"
   width="48pt"
   height="48pt"
   version="1.1"
   id="svg11"
   sodipodi:docname="armorpaint.svg"
   inkscape:version="0.92.3 (2405546, 2018-03-11)">
  <metadata
     id="metadata17">
    <rdf:RDF>
      <cc:Work
         rdf:about="">
        <dc:format>image/svg+xml</dc:format>
        <dc:type
           rdf:resource="http://purl.org/dc/dcmitype/StillImage" />
      </cc:Work>
    </rdf:RDF>
  </metadata>
  <defs
     id="defs15" />
  <sodipodi:namedview
     pagecolor="#ffffff"
     bordercolor="#666666"
     borderopacity="1"
     objecttolerance="10"
     gridtolerance="10"
     guidetolerance="10"
     inkscape:pageopacity="0"
     inkscape:pageshadow="2"
     inkscape:window-width="1152"
     inkscape:window-height="802"
     id="namedview13"
     showgrid="false"
     showguides="false"
     inkscape:zoom="3.6875"
     inkscape:cx="-5.8305085"
     inkscape:cy="32"
     inkscape:window-x="-8"
     inkscape:window-y="-8"
     inkscape:window-maximized="1"
     inkscape:current-layer="svg11" />
  <linearGradient
     id="_lgradient_8"
     x1="0.03989361702127648"
     y1="0.9662566489361708"
     x2="0.7776922359089218"
     y2="0.09749877519596872"
     gradientTransform="matrix(47,0,0,45.576,0.5,1.212)"
     gradientUnits="userSpaceOnUse">
    <stop
       offset="0%"
       stop-opacity="1"
       style="stop-color:rgb(249,212,35)"
       id="stop2" />
    <stop
       offset="51.56237565086822%"
       stop-opacity="1"
       style="stop-color:#2ad4ff;stop-opacity:1"
       id="stop4" />
    <stop
       offset="99.1304347826087%"
       stop-opacity="1"
       style="stop-color:rgb(138,35,135)"
       id="stop6" />
  </linearGradient>
  <path
     d="m 36.982,44.829 0.548,1.959 H 47.5 C 38.681882,32.952928 30.869866,18.782489 33.258,1.212 H 21.864 C 20.721464,14.505 12.464894,27.798 0.5,41.091 v 5.697 h 7.121 c -0.1134339,-6.739525 -2.4483144,-14.034412 9.89,-17.661 1.45,0.184 2.878,0.509 4.267,0.983 1.837,0.627 3.589,1.51 5.184,2.606 1.724,1.211 3.305,2.621 4.686,4.202 1.595,1.837 3.005,3.817 4.216,5.939 z M 32.19,27.715 27.561,11.182 21.196,22.548 c 0.972,0.221 1.932,0.491 2.875,0.811 2.464,0.855 4.8,2.023 6.951,3.504 0.395,0.275 0.785,0.56 1.168,0.852 z"
     id="path9"
     inkscape:connector-curvature="0"
     style="fill:url(#_lgradient_8);fill-rule:evenodd"
     sodipodi:nodetypes="cccccccccccccccccccc" />
</svg>
