<?xml version="1.0" encoding="UTF-8" standalone="no"?>
<!-- Generator: Gravit.io -->

<svg
   xmlns:dc="http://purl.org/dc/elements/1.1/"
   xmlns:cc="http://creativecommons.org/ns#"
   xmlns:rdf="http://www.w3.org/1999/02/22-rdf-syntax-ns#"
   xmlns:svg="http://www.w3.org/2000/svg"
   xmlns="http://www.w3.org/2000/svg"
   xmlns:sodipodi="http://sodipodi.sourceforge.net/DTD/sodipodi-0.dtd"
   xmlns:inkscape="http://www.inkscape.org/namespaces/inkscape"
   style="isolation:isolate"
   viewBox="0 0 48 48"
   width="48pt"
   height="48pt"
   version="1.1"
   id="svg16"
   sodipodi:docname="atlauncher.svg"
   inkscape:version="0.92.3 (2405546, 2018-03-11)">
  <metadata
     id="metadata22">
    <rdf:RDF>
      <cc:Work
         rdf:about="">
        <dc:format>image/svg+xml</dc:format>
        <dc:type
           rdf:resource="http://purl.org/dc/dcmitype/StillImage" />
      </cc:Work>
    </rdf:RDF>
  </metadata>
  <defs
     id="defs20" />
  <sodipodi:namedview
     pagecolor="#ffffff"
     bordercolor="#666666"
     borderopacity="1"
     objecttolerance="10"
     gridtolerance="10"
     guidetolerance="10"
     inkscape:pageopacity="0"
     inkscape:pageshadow="2"
     inkscape:window-width="1152"
     inkscape:window-height="802"
     id="namedview18"
     showgrid="false"
     inkscape:zoom="3.6875"
     inkscape:cx="-5.8305085"
     inkscape:cy="32"
     inkscape:window-x="-8"
     inkscape:window-y="-8"
     inkscape:window-maximized="1"
     inkscape:current-layer="svg16" />
  <linearGradient
     id="_lgradient_16"
     x1="0.06818181818176848"
     y1="0.2329545454545455"
     x2="0.9384302091713563"
     y2="0.7793895816572807"
     gradientTransform="matrix(40.282,0,0,47.4,3.859,0.3)"
     gradientUnits="userSpaceOnUse">
    <stop
       offset="0%"
       stop-opacity="1"
       style="stop-color:#ff2a2a;stop-opacity:1"
       id="stop2" />
    <stop
       offset="98.26086956521739%"
       stop-opacity="1"
       style="stop-color:rgb(51,8,103)"
       id="stop4" />
  </linearGradient>
  <path
     d="m 24,0.3 c -0.309945,7.5039565 -5.233486,12.444804 -20.141,11.839 5.7259859,8.581979 3.3596612,16.211921 0,23.725 C 14.761334,36.382242 18.780593,42.53209 24,47.7 27.700781,40.980346 34.47424,37.054037 44.141,35.758 c -4.337046,-8.379797 -4.34092,-16.217948 0,-23.513 L 32.957,5.615 37.515661,2.8831356 37.513,15.993 37.542,31.89 24,39.98 10.491,31.984 10.454,15.875 C 28.984534,22.490873 30.288591,13.849009 30.162,3.94 Z"
     id="path7"
     inkscape:connector-curvature="0"
     style="fill:url(#_lgradient_16)"
     sodipodi:nodetypes="ccccccccccccccc" />
  <linearGradient
     id="_lgradient_17"
     x1="0"
     y1="0.5"
     x2="0.9074880558539661"
     y2="0.9200778838291643"
     gradientTransform="matrix(26.46,0,0,24.188,10.754,15.923)"
     gradientUnits="userSpaceOnUse">
    <stop
       offset="1.6666666666666667%"
       stop-opacity="1"
       style="stop-color:#ff00cc;stop-opacity:1"
       id="stop9" />
    <stop
       offset="84.58333333333333%"
       stop-opacity="1"
       style="stop-color:rgb(94,239,229)"
       id="stop11" />
  </linearGradient>
  <path
     d="m 24.013,27.943 c -2.247614,4.505523 -0.15599,8.143198 0,12.168 L 20.406,37.642 V 32.65 l -6.052,-3.319 v 4.979 l -3.561,-2.257 -0.039,-16.01 v 0 c 4.417333,3.416739 8.834667,7.450133 13.252,7.762 6.379818,-1.045612 9.367103,-4.805251 13.208,-7.882 v 3.996 l -4.797,2.774 V 34.96 l -3.607,2.031 c 0.918229,-3.999667 2.216631,-7.999333 0,-11.999 z m -3.633,1.282 -5.973,-3.292 v -3.757 l 5.973,3.186 z"
     id="path14"
     inkscape:connector-curvature="0"
     style="fill:url(#_lgradient_17);fill-rule:evenodd"
     sodipodi:nodetypes="cccccccccccccccccccccc" />
</svg>
